<?xml version="1.0" encoding="UTF-8"?>
<svg id="Layer_1" xmlns="http://www.w3.org/2000/svg" viewBox="0 0 846.58 850.39">
  <defs>
    <style>
      .cls-1 {
        fill: #c49a6c;
      }

      .cls-2 {
        fill: #b28d62;
      }

      .cls-3, .cls-4 {
        fill: #8b5e3c;
      }

      .cls-5 {
        fill: #006838;
      }

      .cls-5, .cls-6, .cls-4 {
        stroke: #231f20;
        stroke-miterlimit: 10;
      }

      .cls-6 {
        fill: none;
      }
    </style>
  </defs>
  <rect class="cls-3" x="-364.56" y="365.51" width="848.49" height="119.38" transform="translate(-365.51 484.88) rotate(-90)"/>
  <rect class="cls-3" x="362.65" y="365.51" width="848.49" height="119.38" transform="translate(361.7 1212.09) rotate(-90)"/>
  <rect class="cls-1" x="119.38" y=".95" width="607.83" height="848.49"/>
  <path class="cls-6" d="M732.39.2s12.96,95.12,7.51,171.36c-.38,5.27-.95,10.42-1.67,15.43-3.28,23.08-14.07,104.82-9.58,150.33.15,1.48.26,2.96.32,4.48.64,16.54,4.49,118.15,4.04,144.65-.08,4.96.1,9.92.6,14.7,3.36,32.09,14.31,146.5,10.31,239.36-.47,10.88-1.93,21.27-4.11,30.48-4.27,17.99-11.33,52.33-10.38,79.42"/>
  <path class="cls-6" d="M830.3.2s12.87,45.31,7.42,112.39c0,0-7.42,75.13-.25,97.94,0,0,7.38,28.85,8.89,57.69"/>
  <path class="cls-6" d="M804.31.2s-6.19,109.71,0,232.47c6.19,122.76.99,198.57.99,198.57,0,0,.99,111.36,8.91,176.43,5.5,45.21.85,116.63-2.5,156.04-1.67,19.68-1.45,40.18.61,59.59l2.88,27.1"/>
  <path class="cls-6" d="M754.57.2s7.67,93.8,5.2,162.8c0,0,18.06,110.59.49,174.32,0,0-19.3,44.28-18.06,156.31,0,0,3.22,95.26,18.56,158.99,0,0,18.56,81.17,5.44,163.01,0,0-4.21,24.58,2.97,34.76"/>
  <path class="cls-6" d="M746.15,206.51s-14.29,42.1-7.92,128.13"/>
  <path class="cls-6" d="M746.15,337.99c.74-2.01,19.8-55.01,9.16-125.45"/>
  <line class="cls-6" x1="747.88" y1="251.45" x2="746.15" y2="285.67"/>
  <path class="cls-6" d="M846.36,378.91s-21.01,6.71-19.03,156.98c0,0,19.71,56.31,11,153.62-.36,4.03-20.16,58.36-15.21,104.65,0,0,14.33,12.75,15.21,53.67"/>
  <path class="cls-4" d="M770.89,389.68s-20.22,58.01-6.76,183.39"/>
  <path class="cls-4" d="M788.93,397.17c-.29,2.81,15.07,59.88-8.49,180.59"/>
  <line class="cls-4" x1="776.39" y1="455.47" x2="774.48" y2="512.49"/>
  <path class="cls-6" d="M114.27.2s-12.96,95.12-7.51,171.36c.38,5.27.95,10.42,1.67,15.43,3.28,23.08,14.07,104.82,9.58,150.33-.15,1.48-.26,2.96-.32,4.48-.64,16.54-4.49,118.15-4.04,144.65.08,4.96-.1,9.92-.6,14.7-3.36,32.09-14.31,146.5-10.31,239.36.47,10.88,1.93,21.27,4.11,30.48,4.27,17.99,11.33,52.33,10.38,79.42"/>
  <path class="cls-6" d="M16.35.2S3.48,45.5,8.93,112.59c0,0,7.42,75.13.25,97.94,0,0-7.38,28.85-8.89,57.69"/>
  <path class="cls-6" d="M42.34.2s6.19,109.71,0,232.47c-6.19,122.76-.99,198.57-.99,198.57,0,0-.99,111.36-8.91,176.43-5.5,45.21-.85,116.63,2.5,156.04,1.67,19.68,1.45,40.18-.61,59.59l-2.88,27.1"/>
  <path class="cls-6" d="M92.09.2s-7.67,93.8-5.2,162.8c0,0-18.06,110.59-.49,174.32,0,0,19.3,44.28,18.06,156.31,0,0-3.22,95.26-18.56,158.99,0,0-18.56,81.17-5.44,163.01,0,0,4.21,24.58-2.97,34.76"/>
  <path class="cls-6" d="M100.5,206.51s14.29,42.1,7.92,128.13"/>
  <path class="cls-6" d="M100.5,337.99c-.74-2.01-19.8-55.01-9.16-125.45"/>
  <line class="cls-6" x1="98.77" y1="251.45" x2="100.5" y2="285.67"/>
  <path class="cls-6" d="M.29,378.91s21.01,6.71,19.03,156.98c0,0-19.71,56.31-11,153.62.36,4.03,20.16,58.36,15.21,104.65,0,0-14.33,12.75-15.21,53.67"/>
  <path class="cls-4" d="M75.77,389.68s20.22,58.01,6.76,183.39"/>
  <path class="cls-4" d="M57.72,397.17c.29,2.81-15.07,59.88,8.49,180.59"/>
  <line class="cls-4" x1="70.26" y1="455.47" x2="72.17" y2="512.49"/>
  <polygon class="cls-2" points="437.12 22.13 430.81 86.38 386.43 102.24 483.36 111.35 437.12 22.13"/>
  <path class="cls-2" d="M658.87,813.9s15.21-55.64-25.4-79.18l52.28-1.28,33.57,2.03-60.46,78.43Z"/>
  <path class="cls-2" d="M123.32,125.24s67.77,14.25,74.6-14.25c0,0-9.66,63.59-6.53,127.19l-18.29-80.04-49.78-32.89Z"/>
  <polygon class="cls-2" points="656.78 544.44 673.75 566.36 696.02 529.09 677.27 583.91 656.78 544.44"/>
  <polygon class="cls-2" points="464.1 562.25 479.98 630.22 472.41 656.54 487.72 625.84 464.1 562.25"/>
  <polygon class="cls-2" points="696.42 12.16 725.8 12.16 722.73 81.24 719.96 25.32 696.42 12.16"/>
  <path class="cls-2" d="M363.09,697.1s-26.79,90.62-117.44,118.05c0,0,87.15-49.1,50.89-60.67l33.13-16.13,33.42-41.25Z"/>
  <path class="cls-2" d="M231.36,514.88l-42.26,55.92-43.8-46.05s33.71,50.44,33.05,86.62l53.02-96.49Z"/>
  <polygon class="cls-2" points="133.82 836.33 143.98 814.4 148.24 825.37 133.82 836.33"/>
  <polygon class="cls-2" points="440.7 280.14 429.09 305.36 434.33 275.75 440.7 280.14"/>
  <path class="cls-2" d="M244.52,342.2s4.89,20.83,14.16,15.35l-11.7,14.25-2.46-29.6Z"/>
  <polygon class="cls-2" points="530.18 194.62 595.68 175.98 567.56 194.62 530.18 194.62"/>
  <polygon class="cls-2" points="562.93 171.59 565.85 150.76 558.19 161.18 562.93 171.59"/>
  <polyline class="cls-6" points="271.72 471.5 321 414.95 382.78 427.01 403.96 411.13 430.66 422.92 481.65 453.33 530.72 407.66"/>
  <polyline class="cls-6" points="613.9 147.9 634.67 204.1 651.38 216 650.12 275.75 664.1 264.79 664.1 301.94"/>
  <polyline class="cls-6" points="255.82 39.32 277.26 58.15 273.92 102"/>
  <path class="cls-5" d="M390,421.75s-14.41-5.45-18.25-25.57c0,0,15.83-.8,22.07,12.79,0,0-6.72-24.58,2.4-36.38,0,0,9.61,11,10.56,24.58v5.17s8.28-24.89,18.53-17.26c0,0,3.33,19.63-5.3,33.85l-16.11-6.09-13.89,8.92Z"/>
  <path class="cls-5" d="M630.63,193.15s4.5-4.23,3.54-12.65c0,0,2.72,5.79.13,14.11,0,0,5.32-5,5.59-12.01,0,0,1.59,8.74-.89,15.78,0,0,3.75-3.86,5.25,2.45,0,0-.56,3.68-6.81,4.54-.27.04-.56.2-.85.1-.63-.23-1.92-1.37-1.92-1.37l-4.05-10.95Z"/>
  <path class="cls-5" d="M272.63,54.08s-2.03-7.93,0-14.76c0,0,2.47,9.7,0,14.76Z"/>
</svg>