<?xml version="1.0" encoding="UTF-8"?>
<svg id="Layer_1" xmlns="http://www.w3.org/2000/svg" viewBox="0 0 846.58 850.39">
  <defs>
    <style>
      .cls-1 {
        fill: #c49a6c;
      }

      .cls-2 {
        fill: #b28d62;
      }

      .cls-3, .cls-4 {
        fill: #8b5e3c;
      }

      .cls-5 {
        fill: #006838;
      }

      .cls-5, .cls-6, .cls-4 {
        stroke: #231f20;
        stroke-miterlimit: 10;
      }

      .cls-6 {
        fill: none;
      }
    </style>
  </defs>
  <rect class="cls-1" x=".39" y=".95" width="849.05" height="849.05" transform="translate(849.83 850.95) rotate(-180)"/>
  <rect class="cls-3" x="-365.51" y="365.51" width="848.49" height="119.38" transform="translate(483.93 366.46) rotate(90)"/>
  <path class="cls-6" d="M113.32,0s-12.96,95.04-7.51,171.21c.38,5.27.95,10.41,1.67,15.41,3.28,23.06,14.07,104.72,9.58,150.19-.15,1.48-.26,2.96-.32,4.48-.64,16.53-4.49,118.04-4.04,144.52.08,4.96-.1,9.91-.6,14.68-3.36,32.06-14.31,146.37-10.31,239.15.47,10.87,1.93,21.25,4.11,30.45,4.27,17.98,11.33,52.28,10.38,79.35"/>
  <path class="cls-6" d="M15.4,0S2.53,38.94,7.98,96.59c0,0,7.42,64.57.25,84.17,0,0-7.38,24.79-8.89,49.58"/>
  <path class="cls-6" d="M41.39,0s6.19,109.61,0,232.26c-6.19,122.66-.99,198.39-.99,198.39,0,0-.99,111.26-8.91,176.28-5.5,45.17-.85,116.53,2.5,155.9,1.67,19.66,1.45,40.15-.61,59.53l-2.88,27.08"/>
  <path class="cls-6" d="M91.13,0s-7.67,93.71-5.2,162.65c0,0-18.06,110.5-.49,174.17,0,0,19.3,44.24,18.06,156.17,0,0-3.22,95.18-18.56,158.85,0,0-18.56,81.1-5.44,162.87,0,0,4.21,24.56-2.97,34.73"/>
  <path class="cls-6" d="M99.55,177.31s14.29,36.18,7.92,110.12"/>
  <path class="cls-6" d="M99.55,290.31c-.74-1.73-19.8-47.28-9.16-107.81"/>
  <line class="cls-6" x1="97.82" y1="215.93" x2="99.55" y2="245.34"/>
  <path class="cls-6" d="M-.66,378.38s21.01,6.7,19.03,156.84c0,0-19.71,56.26-11,153.49.36,4.02,20.16,58.31,15.21,104.56,0,0-14.33,12.73-15.21,53.62"/>
  <path class="cls-4" d="M74.81,334.73s20.22,49.86,6.76,157.61"/>
  <path class="cls-4" d="M56.77,341.16c.29,2.41-15.07,51.47,8.49,155.2"/>
  <line class="cls-4" x1="69.31" y1="391.27" x2="71.22" y2="440.27"/>
  <polygon class="cls-2" points="479.61 718.39 471.22 649.21 412.18 632.13 541.13 622.32 479.61 718.39"/>
  <path class="cls-2" d="M669.26,12.28s20.23,59.91-33.79,85.26l69.55,1.38,44.66-2.18-80.43-84.45Z"/>
  <path class="cls-2" d="M131.13,624.99s90.16-15.35,99.25,15.35c0,0-12.85-68.47-8.68-136.95l-24.33,86.18-66.23,35.42Z"/>
  <polygon class="cls-2" points="740.79 318.45 763.37 294.84 793 334.98 768.04 275.95 740.79 318.45"/>
  <polygon class="cls-2" points="344.08 297.97 365.21 224.77 355.13 196.44 375.5 229.49 344.08 297.97"/>
  <polygon class="cls-2" points="797.43 698.97 836.51 698.97 832.43 624.59 828.76 684.8 797.43 698.97"/>
  <path class="cls-2" d="M453.56,149.55s-35.65-97.58-156.24-127.11c0,0,115.94,52.87,67.7,65.33l44.07,17.37,44.46,44.42Z"/>
  <path class="cls-2" d="M249.55,392.41l-56.22-60.21-58.27,49.58s44.85-54.31,43.96-93.27l70.53,103.89Z"/>
  <polygon class="cls-2" points="121.54 68.93 135.05 92.54 140.72 80.74 121.54 68.93"/>
  <polygon class="cls-2" points="500.22 486.86 484.78 459.71 491.75 491.58 500.22 486.86"/>
  <path class="cls-2" d="M340.81,571.86s6.51-22.43,18.84-16.53l-15.57-15.35-3.27,31.88Z"/>
  <polygon class="cls-2" points="619.27 578.95 706.4 599.02 668.99 578.95 619.27 578.95"/>
  <polygon class="cls-2" points="662.83 603.74 666.72 626.17 656.52 614.95 662.83 603.74"/>
  <polyline class="cls-6" points="393.76 280.81 436.81 341.7 490.77 328.71 509.27 345.82 532.59 333.11 577.13 300.38 619.99 349.55"/>
  <polyline class="cls-6" points="730.64 629.25 758.28 568.73 780.5 555.92 778.83 491.58 797.43 503.39 797.43 463.38"/>
  <polyline class="cls-6" points="278.08 680.19 306.61 659.92 302.16 612.69"/>
  <path class="cls-5" d="M586.53,312.03s10.37-6.56,11.82-28.36c0,0-11.87-.09-15.57,14.81,0,0,3.28-26.74-4.35-38.97,0,0-6.4,12.29-6.15,26.93l.36,5.55s-7.93-26.34-15.04-17.64c0,0-1.11,21.26,6.33,36.11l11.59-7.33,10.99,8.9Z"/>
  <path class="cls-5" d="M758.49,568.83s-6.01-4.53-4.79-13.59c0,0-3.58,6.26-.09,15.2,0,0-7.1-5.34-7.51-12.89,0,0-2.06,9.42,1.28,16.98,0,0-5.01-4.12-6.97,2.68,0,0,.76,3.96,9.09,4.83.36.04.74.21,1.13.1.83-.25,2.54-1.48,2.54-1.48l5.32-11.82Z"/>
  <path class="cls-5" d="M300.45,664.29s-2.7,8.54,0,15.89c0,0,3.29-10.44,0-15.89Z"/>
</svg>