<?xml version="1.0" encoding="UTF-8"?>
<svg id="Layer_1" xmlns="http://www.w3.org/2000/svg" viewBox="0 0 846.58 850.39">
  <defs>
    <style>
      .cls-1 {
        fill: #c49a6c;
      }

      .cls-2 {
        fill: #5e5449;
      }

      .cls-3 {
        fill: #b28d62;
      }

      .cls-4 {
        fill: #65a246;
      }

      .cls-4, .cls-5, .cls-6, .cls-7, .cls-8 {
        stroke: #231f20;
        stroke-miterlimit: 10;
      }

      .cls-9, .cls-8 {
        fill: #8b5e3c;
      }

      .cls-5 {
        fill: #006838;
      }

      .cls-10 {
        fill: #726658;
      }

      .cls-6 {
        fill: #9f6b48;
      }

      .cls-7 {
        fill: none;
      }
    </style>
  </defs>
  <rect class="cls-10" y="119.38" width="846.58" height="365.51"/>
  <polygon class="cls-2" points="745.24 119.38 773.37 123.9 807.54 122.35 831.03 119.38 745.24 119.38"/>
  <polygon class="cls-2" points="202.55 130.68 203.75 136.49 285.47 209.62 307.41 224.43 202.55 130.68"/>
  <rect class="cls-9" width="846.58" height="119.38"/>
  <polygon class="cls-2" points="500.11 299.98 505.93 266.81 534.14 228.93 500.11 259.35 500.11 299.98"/>
  <polygon class="cls-6" points="258.9 119.38 346.47 200.44 346.47 259.35 189.9 119.38 258.9 119.38"/>
  <polygon class="cls-6" points="587.68 119.38 500.11 200.44 500.11 259.35 656.68 119.38 587.68 119.38"/>
  <polyline class="cls-8" points="0 484.88 346.47 484.88 846.58 484.88"/>
  <rect class="cls-1" x="0" y="484.88" width="846.58" height="365.51"/>
  <polygon class="cls-2" points="500.11 142.83 500.11 154.65 502.92 147.47 526.55 148.09 507.81 145.3 500.11 142.83"/>
  <polygon class="cls-2" points="308.05 119.92 337.28 128.2 346.47 156.28 346.12 119.92 308.05 119.92"/>
  <polygon class="cls-8" points="500.11 484.88 346.47 484.88 346.47 156.99 346.47 119.38 500.11 119.38 500.11 484.88"/>
  <path class="cls-7" d="M367.29,119.38s15.1,40.89,8.75,73.67c-.44,2.27-1.11,4.48-1.94,6.63-3.82,9.92-16.4,45.06-11.16,64.63.17.64.31,1.27.37,1.93.74,7.11,5.23,50.79,4.71,62.19-.1,2.13.11,4.26.69,6.32,3.91,13.8,16.68,62.98,12.02,102.9-.55,4.68-2.24,9.14-4.79,13.1-4.98,7.74-13.21,22.5-12.1,34.14"/>
  <path class="cls-7" d="M481.39,119.38s15,19.48,8.65,48.32c0,0-8.65,32.3-.29,42.11,0,0,8.6,12.4,10.36,24.8"/>
  <path class="cls-7" d="M451.11,119.38s-7.21,47.16,0,99.94c7.21,52.78,1.15,85.37,1.15,85.37,0,0,1.15,47.87,10.38,75.85,6.41,19.43.99,50.14-2.91,67.08-1.95,8.46-1.69,17.28.71,25.62l3.35,11.65"/>
  <path class="cls-7" d="M393.14,119.38s8.94,40.32,6.06,69.99c0,0,21.05,47.55.57,74.94,0,0-22.49,19.03-21.05,67.2,0,0,3.75,40.95,21.63,68.35,0,0,21.63,34.9,6.34,70.08,0,0-4.9,10.57,3.46,14.94"/>
  <path class="cls-7" d="M383.33,208.07s-16.65,18.1-9.23,55.09"/>
  <path class="cls-7" d="M383.33,264.6c.87-.87,23.07-23.65,10.67-53.93"/>
  <line class="cls-7" x1="385.35" y1="227.39" x2="383.33" y2="242.1"/>
  <path class="cls-7" d="M500.11,282.19s-24.49,2.88-22.18,67.49c0,0,22.97,24.21,12.82,66.04-.42,1.73-23.49,25.09-17.72,44.99,0,0,16.7,5.48,17.72,23.07"/>
  <path class="cls-8" d="M412.16,286.82s-23.56,24.94-7.87,78.84"/>
  <path class="cls-8" d="M433.18,290.04c-.34,1.21,17.56,25.74-9.89,77.64"/>
  <line class="cls-8" x1="418.57" y1="315.1" x2="416.34" y2="339.62"/>
  <line class="cls-8" x1="605.78" y1="119.38" x2="500.11" y2="215.56"/>
  <line class="cls-8" x1="623.23" y1="119.38" x2="500.11" y2="228.93"/>
  <line class="cls-8" x1="639.95" y1="119.38" x2="500.11" y2="242.1"/>
  <path class="cls-2" d="M160.11,138.98l-12.84,5.67-8.38,13.93-5.66,11.97s1.19-29.95,16.6-31.56l10.28-.02Z"/>
  <path class="cls-4" d="M81.01,119.38s12.76,19.59,7.51,33.1-3.75,33.03,9.01,45.04,24.02,10.98,22.52-7.65c-.56-6.98,1.2-9.66,3.62-10.28,5.38-1.37,9.53-5.65,9.93-11.19.94-13.23,4.82-30.36,18.74-29.43,22.52,1.5,37.58-19.59,37.58-19.59h-108.89Z"/>
  <polygon class="cls-3" points="373.71 485.23 432.95 508.44 414.16 539.54 498.88 484.88 373.71 485.23"/>
  <line class="cls-8" x1="240.8" y1="119.38" x2="346.47" y2="215.56"/>
  <line class="cls-8" x1="223.35" y1="119.38" x2="346.47" y2="228.93"/>
  <line class="cls-8" x1="206.63" y1="119.38" x2="346.47" y2="242.1"/>
  <path class="cls-2" d="M689.33,202.68l-3.86,6.41-6.97,8.91-11.83,9.34-5.62,2.94s10.86-4.26,11.43-4.63,16.85-13.56,16.85-13.56l16.79,11.93,5.73,2.41-9.43-7.12-7.28-7.6-4.34-7.1-1.46-1.94Z"/>
  <path class="cls-7" d="M684.11,186.85s6.51,56.2,93.95,55.6"/>
  <path class="cls-2" d="M592.11,321.79l18.96,12.92,5.1-2.18s-6.7,8.3-2.04,31.45l-1.62,5.39s-1.06-33.99-20.39-47.57Z"/>
  <path class="cls-7" d="M599.33,234.6s67.16,16.87,90-32.63"/>
  <path class="cls-7" d="M794.67,162.39s40.1,7.84,24.06,40.5"/>
  <path class="cls-7" d="M534.03,311.15c4.01,4.01,76.19-19.48,78.48,61.87"/>
  <polygon class="cls-2" points="697.84 311.92 708.23 315.18 721.31 316.46 737.13 313.52 753.64 304.66 742.14 313.97 725.74 325.37 710.05 318.05 697.84 311.92"/>
  <path class="cls-7" d="M681.82,302.47s50.41,44.2,96.24-24.54"/>
  <path class="cls-7" d="M774.04,341.96c12.03,8.72,42.39-14.31,43.54,41.03"/>
  <path class="cls-7" d="M523.71,373.02s1.72,38.95,49.55,32.08"/>
  <path class="cls-7" d="M334.11,142.83s1.72-16.7-34.37-14.41"/>
  <path class="cls-2" d="M311.03,247.02l16.08,8.08.44,11.71s.34-6.26-16.52-19.79Z"/>
  <path class="cls-2" d="M213.6,285.32l4.99,15.02,2.54,17.21s10.69-8.51,25.18-1.99l7.75-.09s-25.3-2.67-40.45-30.14Z"/>
  <path class="cls-7" d="M268.19,336.1s60.75,6.85,55.26-49.28"/>
  <path class="cls-2" d="M19.8,209.03l-14.33-6.35-4.98,5.9v-15.08s4.45,6.42,19.31,15.53Z"/>
  <path class="cls-7" d="M261.23,316.46c-1.1.24-52.34-4.28-52.34-57.11"/>
  <path class="cls-7" d="M236.7,242.1s64.42-27.52,91.87,26.65"/>
  <path class="cls-7" d="M0,192.25s22.95,34.63,64.67,18.41"/>
  <path class="cls-7" d="M70.9,119.38s15.74,16.51,3.29,39.2"/>
  <path class="cls-7" d="M141.9,189.36s28.92,39.49,73.2,22.29"/>
  <path class="cls-2" d="M100.81,405.79l15.47-12.83.73-5.17,11.02,10.18,9.11,2.57-9.92-8.38-7.88-10.53-2.33-3.37s-9.51,23.23-16.2,27.53Z"/>
  <path class="cls-7" d="M10.5,429.4s84.18,17.97,106.51-52.67"/>
  <path class="cls-7" d="M204.13,416.26s-95.17,7.32-92.97-71.01"/>
  <path class="cls-2" d="M300.28,460.11l6.95.72,8.31-2.71-1.92,4.8s9.84-9.5,9.16-13.23l-.62-2.66s-8.59,11.34-21.87,13.07Z"/>
  <path class="cls-2" d="M121.29,462.54l8.87,1.71,6.37,3.11.46,6.24.85,3.52-4.56-4.28s-2.55-8.37-12-10.31Z"/>
  <path class="cls-7" d="M288.68,458.72s28.18,10.25,39.9-24.89"/>
  <path class="cls-3" d="M385.35,850.18s63.02-13.94,42.49-43.8l53.55,26.12,31.94,17.89-127.98-.21Z"/>
  <path class="cls-7" d="M137.14,483.78s-.37-29.24-41.73-23.68"/>
  <path class="cls-7" d="M78.98,292.18s43.53,17.2,62.92-23.43"/>
  <path class="cls-7" d="M36.12,251.93s-13.91,21.58,7.69,31.46"/>
  <path class="cls-2" d="M671.75,131.47s6.8,20.29,12.36,21.12c0,0,11.31,5.7,20.64,3.17,0,0-20.64-1.5-33-24.29Z"/>
  <path class="cls-7" d="M666.92,119.38s9.74,43.41,55.57,35.39"/>
  <polygon class="cls-2" points="690.77 435.14 704.07 440.06 717.75 443.45 701.81 443.45 690.77 435.14"/>
  <path class="cls-2" d="M764.6,443.73l13.45-.28-2.08,4.86s7.91-6.19,8.14-7.34l5.41-3.6-10.34,3.37-8.83,2.1-5.75.88Z"/>
  <path class="cls-7" d="M656.68,413.12c2.23,1.72,62.95,63.68,160.9,12.08"/>
  <path class="cls-7" d="M500.1,142.21s30.32,15.22,48.34-4.84"/>
  <path class="cls-5" d="M449.15,201.27s22.49,14.75,24.6,33.34c2.12,18.59-13.97,18.1-10.16,43.33s-8.97-5.68-8.97-5.68c0,0-.35-20.64,4.31-29.8,4.66-9.15-6.63-13.52-6.63-13.52,0,0-2.19-11.39-3.15-27.66Z"/>
  <path class="cls-4" d="M726.63,444.81c-.73-.32,18.78.87,18.78.87l13.76-.87s4.55,11.07-2.53,19.57c0,0-2.23,7.01,2.93,13.76,2.89,3.78.13,3.9-2.86,3.27-2.78-.59-5.09-2.5-6.21-5.12-2.35-5.49-7.49-14.37-13.8-6.44,0,0-1.62,3.04-1.72,8.5,0,0,2.53,10.73-11.13.51,0,0-10.08-9.51,13.27-18.92,0,0,14.33-4.23-10.5-15.12Z"/>
  <path class="cls-4" d="M727.91,449.2s-2.73,4.45-2.73,6.78c0,0,4.25,4.05,6.78-.71,0,0-.51-3.24-4.05-6.07Z"/>
  <path class="cls-7" d="M0,34.74s144.34-26.85,200.48-7.32c50.43,17.54,202.43,6.94,232.81,4.61,3.38-.26,6.69-1.03,9.84-2.3,16.72-6.71,76.03-28.54,114.06-16.95,44.63,13.6,116.46,7.32,116.46,7.32,0,0,155.83-32.78,172.93,12.2"/>
  <path class="cls-7" d="M0,67.52s109.12-36.61,161.08-20.57c26.76,8.26,47.87,8.47,62.06,6.74,12.07-1.48,24.36.35,35.39,5.45,9.03,4.18,23.15,8.53,44.81,10.82,34.37,3.63,99.22-10.83,135.66-20.01,15.98-4.03,32.84-1.98,47.45,5.65,22.73,11.87,62.65,27.49,112.88,25.52,48.51-1.91,71.29-15.59,81.71-26.05,9.73-9.77,22.35-16.11,35.91-18.6,34.64-6.38,93.82-11.52,129.63,17.46"/>
  <path class="cls-7" d="M0,98.55s53.33,19.53,98.31,4.53c0,0,61.46-36.61,115.29-12.55,0,0,98.81,45.33,249.44-2.79,0,0,27.88-8.76,43.32,6.56,1.68,1.67,3.51,3.18,5.56,4.37,10.19,5.91,41.28,19.48,104.24,13.13,0,0,89.56,0,117.46-25.45,0,0,68.31-38.36,112.96,19.53"/>
  <path class="cls-7" d="M43.81,68.21s43.97-18.45,77.48-8.53"/>
  <path class="cls-7" d="M37.76,89.14s32.5,17.78,72.68-6.28"/>
  <line class="cls-7" x1="66.24" y1="77.63" x2="95.42" y2="73.89"/>
  <path class="cls-7" d="M500.1,35.79c14.89-1.05,96.83-17.13,155.06,1.55"/>
  <path class="cls-7" d="M517.12,56.76s84.59,26.9,122.82,0"/>
  <line class="cls-7" x1="564.51" y1="45.9" x2="604.14" y2="45.9"/>
  <path class="cls-7" d="M762.56,101.34s27.89-11.86,44.63,0"/>
  <path class="cls-5" d="M760.8,31.61s18.52,5.09,19.53,19.79c0,0,3.02,21.29-15.73,3.8,0,0-2.02-7.35,1.79-14.2,0,0-2.28-7.1-9.38,2.28,0,0-9.63,3.29-1.27-11.79l5.06.11Z"/>
  <path class="cls-3" d="M37.76,525.86s98.94,8.09,108.91-8.09c0,0-14.1,36.08-9.53,72.15l-26.7-45.41-72.68-18.66Z"/>
  <polygon class="cls-3" points="548.49 691.31 573.27 703.75 605.78 682.6 578.39 713.7 548.49 691.31"/>
  <polygon class="cls-3" points="276.55 698.15 299.74 736.72 288.68 751.65 311.03 734.23 276.55 698.15"/>
  <polygon class="cls-3" points="788.13 500.36 831.03 500.36 826.55 539.54 822.51 507.82 788.13 500.36"/>
  <path class="cls-3" d="M704.75,648.39s91,32.97,83.38,98.28c0,0-18.36-66.55-46.89-44.16l-4.12-24.88-32.38-29.23Z"/>
  <path class="cls-3" d="M172.82,648.39l-61.7,31.72-63.95-26.12s49.22,28.61,48.25,49.14l77.4-54.74Z"/>
  <polygon class="cls-3" points="32.34 818.82 47.17 806.38 53.39 812.6 32.34 818.82"/>
  <polygon class="cls-3" points="447.9 598.63 430.95 612.94 438.61 596.15 447.9 598.63"/>
  <path class="cls-3" d="M272.96,553.85s7.14,11.82,20.68,8.71l-17.09,8.09-3.59-16.79Z"/>
  <polygon class="cls-3" points="578.54 550.12 674.15 539.54 633.1 550.12 578.54 550.12"/>
  <polygon class="cls-3" points="626.35 537.05 630.61 525.24 619.42 531.15 626.35 537.05"/>
  <polyline class="cls-7" points="217.35 707.84 264.59 675.76 323.8 682.6 344.1 673.59 369.69 680.29 418.57 697.53 465.6 671.63"/>
  <polyline class="cls-7" points="700.76 523.61 731.08 555.5 755.47 562.25 753.64 596.15 774.04 589.93 774.04 611"/>
  <polyline class="cls-7" points="172.82 514.56 204.13 525.24 199.24 550.12"/>
  <path class="cls-5" d="M332.71,678.65s-11.83-3.09-14.98-14.51c0,0,12.99-.45,18.11,7.25,0,0-5.51-13.95,1.97-20.64,0,0,7.88,6.24,8.67,13.95v2.93s6.79-14.12,15.2-9.79c0,0,2.73,11.14-4.35,19.2l-13.22-3.46-11.4,5.06Z"/>
  <path class="cls-5" d="M725.17,549.29s6.57-2.4,5.17-7.18c0,0,3.97,3.29.19,8.01,0,0,7.76-2.84,8.16-6.81,0,0,2.32,4.96-1.3,8.95,0,0,5.48-2.19,7.66,1.39,0,0-.81,2.09-9.95,2.57-.4.02-.81.11-1.24.05-.91-.13-2.8-.77-2.8-.77l-5.91-6.21Z"/>
  <path class="cls-5" d="M197.36,522.93s-2.96-4.5,0-8.37c0,0,3.6,5.5,0,8.37Z"/>
  <line class="cls-7" x1="346.47" y1="484.88" x2="500.11" y2="484.88"/>
  <line class="cls-7" x1="378.69" y1="850.39" x2="518.05" y2="850.39"/>
</svg>