<?xml version="1.0" encoding="UTF-8"?>
<svg id="Layer_1" xmlns="http://www.w3.org/2000/svg" viewBox="0 0 846.58 850.39">
  <defs>
    <style>
      .cls-1 {
        fill: #c49a6c;
      }

      .cls-2 {
        fill: #b28d62;
      }

      .cls-3, .cls-4 {
        fill: #8b5e3c;
      }

      .cls-5 {
        fill: #006838;
      }

      .cls-5, .cls-6, .cls-4 {
        stroke: #231f20;
        stroke-miterlimit: 10;
      }

      .cls-6 {
        fill: none;
      }
    </style>
  </defs>
  <rect class="cls-1" x="-.34" y="1.43" width="849.05" height="849.05"/>
  <rect class="cls-3" x="366.12" y="365.99" width="848.49" height="119.38" transform="translate(1216.04 -364.69) rotate(90)"/>
  <path class="cls-6" d="M735.78.48s12.96,94.98,7.51,171.11c-.38,5.27-.95,10.4-1.67,15.41-3.28,23.05-14.07,104.67-9.58,150.11.15,1.48.26,2.95.32,4.48.64,16.52,4.49,117.98,4.04,144.44-.08,4.95.1,9.9.6,14.67,3.36,32.04,14.31,146.29,10.31,239.01-.47,10.87-1.93,21.24-4.11,30.44-4.27,17.97-11.33,52.25-10.38,79.3"/>
  <path class="cls-6" d="M833.7.48s12.87,38.94,7.42,96.59c0,0-7.42,64.57-.25,84.17,0,0,7.38,24.79,8.89,49.58"/>
  <path class="cls-6" d="M807.71.48s-6.19,109.55,0,232.13c6.19,122.59.99,198.28.99,198.28,0,0,.99,111.2,8.91,176.18,5.5,45.14.85,116.47-2.5,155.81-1.67,19.65-1.45,40.13.61,59.5l2.88,27.06"/>
  <path class="cls-6" d="M757.96.48s7.67,93.66,5.2,162.56c0,0,18.06,110.43.49,174.07,0,0-19.3,44.21-18.06,156.08,0,0,3.22,95.12,18.56,158.76,0,0,18.56,81.05,5.44,162.78,0,0-4.21,24.54,2.97,34.71"/>
  <path class="cls-6" d="M749.55,177.78s-14.29,36.18-7.92,110.12"/>
  <path class="cls-6" d="M749.55,290.78c.74-1.73,19.8-47.28,9.16-107.81"/>
  <line class="cls-6" x1="751.28" y1="216.41" x2="749.55" y2="245.81"/>
  <path class="cls-6" d="M849.76,378.64s-21.01,6.7-19.03,156.75c0,0,19.71,56.22,11,153.4-.36,4.02-20.16,58.28-15.21,104.5,0,0,14.33,12.73,15.21,53.59"/>
  <path class="cls-4" d="M774.29,335.21s-20.22,49.86-6.76,157.61"/>
  <path class="cls-4" d="M792.33,341.64c-.29,2.41,15.07,51.47-8.49,155.2"/>
  <line class="cls-4" x1="779.79" y1="391.74" x2="777.88" y2="440.75"/>
  <path class="cls-6" d="M785.49,604.71s14.61,26.56,4.5,44.4"/>
  <polygon class="cls-2" points="369.49 718.87 377.88 649.69 436.92 632.61 307.97 622.8 369.49 718.87"/>
  <path class="cls-2" d="M179.84,12.76s-20.23,59.91,33.79,85.26l-69.55,1.38-44.66-2.18L179.84,12.76Z"/>
  <path class="cls-2" d="M717.97,625.47s-90.16-15.35-99.25,15.35c0,0,12.85-68.47,8.68-136.95l24.33,86.18,66.23,35.42Z"/>
  <polygon class="cls-2" points="108.3 318.93 85.73 295.32 56.1 335.46 81.05 276.43 108.3 318.93"/>
  <polygon class="cls-2" points="505.02 298.44 483.89 225.25 493.97 196.91 473.59 229.97 505.02 298.44"/>
  <polygon class="cls-2" points="51.67 699.44 12.58 699.44 16.67 625.07 20.34 685.28 51.67 699.44"/>
  <path class="cls-2" d="M395.54,150.03s35.65-97.58,156.24-127.11c0,0-115.94,52.87-67.7,65.33l-44.07,17.37-44.46,44.42Z"/>
  <path class="cls-2" d="M599.55,392.89l56.22-60.21,58.27,49.58s-44.85-54.31-43.96-93.27l-70.53,103.89Z"/>
  <polygon class="cls-2" points="727.56 69.41 714.04 93.02 708.37 81.21 727.56 69.41"/>
  <polygon class="cls-2" points="348.87 487.34 364.32 460.18 357.34 492.06 348.87 487.34"/>
  <path class="cls-2" d="M508.29,572.34s-6.51-22.43-18.84-16.53l15.57-15.35,3.27,31.88Z"/>
  <polygon class="cls-2" points="229.83 579.42 142.7 599.49 180.11 579.42 229.83 579.42"/>
  <polygon class="cls-2" points="186.26 604.21 182.37 626.65 192.58 615.43 186.26 604.21"/>
  <polyline class="cls-6" points="455.34 281.29 412.29 342.18 358.33 329.19 339.83 346.29 316.51 333.59 271.97 300.86 229.11 350.03"/>
  <polyline class="cls-6" points="118.46 629.73 90.82 569.21 68.59 556.4 70.27 492.06 51.67 503.86 51.67 463.86"/>
  <polyline class="cls-6" points="571.02 680.66 542.48 660.39 546.94 613.17"/>
  <path class="cls-5" d="M262.57,312.51s-10.37-6.56-11.82-28.36c0,0,11.87-.09,15.57,14.81,0,0-3.28-26.74,4.35-38.97,0,0,6.4,12.29,6.15,26.93l-.36,5.55s7.93-26.34,15.04-17.64c0,0,1.11,21.26-6.33,36.11l-11.59-7.33-10.99,8.9Z"/>
  <path class="cls-5" d="M90.61,569.31s6.01-4.53,4.79-13.59c0,0,3.58,6.26.09,15.2,0,0,7.1-5.34,7.51-12.89,0,0,2.06,9.42-1.28,16.98,0,0,5.01-4.12,6.97,2.68,0,0-.76,3.96-9.09,4.83-.36.04-.74.21-1.13.1-.83-.25-2.54-1.48-2.54-1.48l-5.32-11.82Z"/>
  <path class="cls-5" d="M548.65,664.77s2.7,8.54,0,15.89c0,0-3.29-10.44,0-15.89Z"/>
</svg>