<?xml version="1.0" encoding="UTF-8"?>
<svg id="Layer_1" xmlns="http://www.w3.org/2000/svg" viewBox="0 0 846.58 850.39">
  <defs>
    <style>
      .cls-1 {
        fill: #c49a6c;
      }

      .cls-2 {
        fill: #b28d62;
      }

      .cls-3, .cls-4 {
        fill: #8b5e3c;
      }

      .cls-5 {
        fill: #006838;
      }

      .cls-5, .cls-6, .cls-4 {
        stroke: #231f20;
        stroke-miterlimit: 10;
      }

      .cls-6 {
        fill: none;
      }
    </style>
  </defs>
  <rect class="cls-1" x="-.34" y="1.43" width="849.05" height="731.42"/>
  <rect class="cls-3" x="366.12" y="365.99" width="848.49" height="119.38" transform="translate(1216.04 -364.69) rotate(90)"/>
  <rect class="cls-3" x="-.34" y="730.54" width="850.39" height="119.38"/>
  <path class="cls-6" d="M735.78.48s12.96,81.75,7.51,147.27c-.38,4.53-.95,8.95-1.67,13.26-3.28,19.84-14.07,90.08-9.58,129.19.15,1.27.26,2.54.32,3.85.64,14.21,4.49,101.54,4.04,124.31-.08,4.26.1,8.52.6,12.63,3.36,27.58,14.31,125.91,10.31,205.71-.47,9.35-1.93,18.28-4.11,26.2-4.27,15.46-11.33,44.97-10.38,68.25"/>
  <path class="cls-6" d="M833.7.48s12.87,38.94,7.42,96.59c0,0-7.42,64.57-.25,84.17,0,0,7.38,24.79,8.89,49.58"/>
  <path class="cls-6" d="M807.71.48s-6.19,94.28,0,199.79c6.19,105.51.99,170.65.99,170.65,0,0,.99,95.71,8.91,151.63,5.5,38.85.85,100.24-2.5,134.1-1.67,16.91-1.45,34.53.61,51.21l2.88,23.29"/>
  <path class="cls-6" d="M757.96.48s7.67,80.61,5.2,139.91c0,0,18.06,95.05.49,149.82,0,0-19.3,38.05-18.06,134.33,0,0,3.22,81.87,18.56,136.64,0,0,18.56,69.76,5.44,140.1,0,0-4.21,21.12,2.97,29.88"/>
  <path class="cls-6" d="M749.55,177.78s-14.29,36.18-7.92,110.12"/>
  <path class="cls-6" d="M749.55,290.78c.74-1.73,19.8-47.28,9.16-107.81"/>
  <line class="cls-6" x1="751.28" y1="216.41" x2="749.55" y2="245.81"/>
  <path class="cls-6" d="M849.76,325.95s-21.01,5.77-19.03,134.91c0,0,19.71,48.39,11,132.03-.36,3.46-20.16,50.16-15.21,89.94,0,0,14.33,10.95,15.21,46.12"/>
  <path class="cls-4" d="M774.29,335.21s-20.22,49.86-6.76,157.61"/>
  <path class="cls-4" d="M792.33,341.64c-.29,2.41,15.07,51.47-8.49,155.2"/>
  <line class="cls-4" x1="779.79" y1="391.74" x2="777.88" y2="440.75"/>
  <path class="cls-6" d="M2.52,761.26s144.34-26.85,200.48-7.32c50.43,17.54,202.43,6.94,232.81,4.61,3.38-.26,6.69-1.03,9.84-2.3,16.72-6.71,76.03-28.54,114.06-16.95,44.63,13.6,116.46,7.32,116.46,7.32,0,0,155.83-32.78,172.93,12.2"/>
  <path class="cls-6" d="M2.52,794.03s109.12-36.61,161.08-20.57c26.76,8.26,47.87,8.47,62.06,6.74,12.07-1.48,24.36.35,35.39,5.45,9.03,4.18,23.15,8.53,44.81,10.82,34.37,3.63,99.22-10.83,135.66-20.01,15.98-4.03,32.84-1.98,47.45,5.65,22.73,11.87,62.65,27.49,112.88,25.52s71.29-15.59,81.71-26.05c9.73-9.77,22.35-16.11,35.91-18.6,34.64-6.38,93.82-11.52,129.63,17.46"/>
  <path class="cls-6" d="M2.52,825.07s53.33,19.53,98.31,4.53c0,0,61.46-36.61,115.29-12.55,0,0,98.81,45.33,249.44-2.79,0,0,27.88-8.76,43.32,6.56,1.68,1.67,3.51,3.18,5.56,4.37,10.19,5.91,41.28,19.48,104.24,13.13,0,0,89.56,0,117.46-25.45,0,0,68.31-38.36,112.96,19.53"/>
  <path class="cls-6" d="M46.33,794.73s43.97-18.45,77.48-8.53"/>
  <path class="cls-6" d="M40.28,815.65s32.5,17.78,72.68-6.28"/>
  <line class="cls-6" x1="68.75" y1="804.14" x2="97.94" y2="800.4"/>
  <path class="cls-6" d="M502.62,762.3c14.89-1.05,96.83-17.13,155.06,1.55"/>
  <path class="cls-6" d="M519.64,783.27s84.59,26.9,122.82,0"/>
  <line class="cls-6" x1="567.03" y1="772.41" x2="606.66" y2="772.41"/>
  <path class="cls-6" d="M765.08,827.86s27.89-11.86,44.63,0"/>
  <path class="cls-5" d="M85.21,803.1s2.96-4.5,0-8.37c0,0-3.6,5.5,0,8.37Z"/>
  <polygon class="cls-2" points="369.49 718.87 377.88 649.69 436.92 632.61 307.97 622.8 369.49 718.87"/>
  <path class="cls-2" d="M179.84,12.76s-20.23,59.91,33.79,85.26l-69.55,1.38-44.66-2.18L179.84,12.76Z"/>
  <path class="cls-2" d="M717.97,625.47s-90.16-15.35-99.25,15.35c0,0,12.85-68.47,8.68-136.95l24.33,86.18,66.23,35.42Z"/>
  <polygon class="cls-2" points="108.3 318.93 85.73 295.32 56.1 335.46 81.05 276.43 108.3 318.93"/>
  <polygon class="cls-2" points="505.02 298.44 483.89 225.25 493.97 196.91 473.59 229.97 505.02 298.44"/>
  <polygon class="cls-2" points="51.67 699.44 12.58 699.44 16.67 625.07 20.34 685.28 51.67 699.44"/>
  <path class="cls-2" d="M395.54,150.03s35.65-97.58,156.24-127.11c0,0-115.94,52.87-67.7,65.33l-44.07,17.37-44.46,44.42Z"/>
  <path class="cls-2" d="M599.55,392.89l56.22-60.21,58.27,49.58s-44.85-54.31-43.96-93.27l-70.53,103.89Z"/>
  <polygon class="cls-2" points="727.56 69.41 714.04 93.02 708.37 81.21 727.56 69.41"/>
  <polygon class="cls-2" points="348.87 487.34 364.32 460.18 357.34 492.06 348.87 487.34"/>
  <path class="cls-2" d="M508.29,572.34s-6.51-22.43-18.84-16.53l15.57-15.35,3.27,31.88Z"/>
  <polygon class="cls-2" points="229.83 579.42 142.7 599.49 180.11 579.42 229.83 579.42"/>
  <polygon class="cls-2" points="186.26 604.21 182.37 626.65 192.58 615.43 186.26 604.21"/>
  <polyline class="cls-6" points="455.34 281.29 412.29 342.18 358.33 329.19 339.83 346.29 316.51 333.59 271.97 300.86 229.11 350.03"/>
  <polyline class="cls-6" points="118.46 629.73 90.82 569.21 68.59 556.4 70.27 492.06 51.67 503.86 51.67 463.86"/>
  <polyline class="cls-6" points="571.02 680.66 542.48 660.39 546.94 613.17"/>
  <path class="cls-5" d="M262.57,312.51s-10.37-6.56-11.82-28.36c0,0,11.87-.09,15.57,14.81,0,0-3.28-26.74,4.35-38.97,0,0,6.4,12.29,6.15,26.93l-.36,5.55s7.93-26.34,15.04-17.64c0,0,1.11,21.26-6.33,36.11l-11.59-7.33-10.99,8.9Z"/>
  <path class="cls-5" d="M90.61,569.31s6.01-4.53,4.79-13.59c0,0,3.58,6.26.09,15.2,0,0,7.1-5.34,7.51-12.89,0,0,2.06,9.42-1.28,16.98,0,0,5.01-4.12,6.97,2.68,0,0-.76,3.96-9.09,4.83-.36.04-.74.21-1.13.1-.83-.25-2.54-1.48-2.54-1.48l-5.32-11.82Z"/>
  <path class="cls-5" d="M548.65,664.77s2.7,8.54,0,15.89c0,0-3.29-10.44,0-15.89Z"/>
</svg>