<?xml version="1.0" encoding="UTF-8"?>
<svg id="Layer_1" xmlns="http://www.w3.org/2000/svg" viewBox="0 0 846.19 217.9">
  <defs>
    <style>
      .cls-1 {
        fill: #8b5e3c;
      }

      .cls-2 {
        fill: #006838;
      }

      .cls-2, .cls-3 {
        stroke: #231f20;
        stroke-miterlimit: 10;
      }

      .cls-3 {
        fill: none;
      }
    </style>
  </defs>
  <rect class="cls-1" x="-2.3" y="44.75" width="850.39" height="119.38" transform="translate(845.79 208.88) rotate(-180)"/>
  <path class="cls-3" d="M845.23,75.47s-144.34-26.85-200.48-7.32c-50.43,17.54-202.43,6.94-232.81,4.61-3.38-.26-6.69-1.03-9.84-2.3-16.72-6.71-76.03-28.54-114.06-16.95-44.63,13.6-116.46,7.32-116.46,7.32,0,0-155.83-32.78-172.93,12.2"/>
  <path class="cls-3" d="M845.23,108.24s-109.12-36.61-161.08-20.57c-26.76,8.26-47.87,8.47-62.06,6.74-12.07-1.48-24.36.35-35.39,5.45-9.03,4.18-23.15,8.53-44.81,10.82-34.37,3.63-99.22-10.83-135.66-20.01-15.98-4.03-32.84-1.98-47.45,5.65-22.73,11.87-62.65,27.49-112.88,25.52-48.51-1.91-71.29-15.59-81.71-26.05-9.73-9.77-22.35-16.11-35.91-18.6-34.64-6.38-93.82-11.52-129.63,17.46"/>
  <path class="cls-3" d="M845.23,139.28s-53.33,19.53-98.31,4.53c0,0-61.46-36.61-115.29-12.55,0,0-98.81,45.33-249.44-2.79,0,0-27.88-8.76-43.32,6.56-1.68,1.67-3.51,3.18-5.56,4.37-10.19,5.91-41.28,19.48-104.24,13.13,0,0-89.56,0-117.46-25.45,0,0-68.31-38.36-112.96,19.53"/>
  <path class="cls-3" d="M801.42,108.94s-43.97-18.45-77.48-8.53"/>
  <path class="cls-3" d="M807.47,129.86s-32.5,17.78-72.68-6.28"/>
  <line class="cls-3" x1="779" y1="118.36" x2="749.81" y2="114.61"/>
  <path class="cls-3" d="M345.13,76.51c-14.89-1.05-96.83-17.13-155.06,1.55"/>
  <path class="cls-3" d="M328.11,97.48s-84.59,26.9-122.82,0"/>
  <line class="cls-3" x1="280.72" y1="86.63" x2="241.09" y2="86.63"/>
  <path class="cls-3" d="M82.67,142.07s-27.89-11.86-44.63,0"/>
  <path class="cls-2" d="M762.54,117.31s-2.96-4.5,0-8.37c0,0,3.6,5.5,0,8.37Z"/>
</svg>