<?xml version="1.0" encoding="UTF-8"?>
<svg id="Layer_1" xmlns="http://www.w3.org/2000/svg" viewBox="0 0 846.58 850.39">
  <defs>
    <style>
      .cls-1 {
        fill: #c49a6c;
      }

      .cls-2, .cls-3 {
        fill: #5e5449;
      }

      .cls-4 {
        fill: #b28d62;
      }

      .cls-5 {
        fill: #65a246;
      }

      .cls-5, .cls-6, .cls-7, .cls-8, .cls-9, .cls-3 {
        stroke: #231f20;
        stroke-miterlimit: 10;
      }

      .cls-10, .cls-9 {
        fill: #8b5e3c;
      }

      .cls-6 {
        fill: #006838;
      }

      .cls-11 {
        fill: #726658;
      }

      .cls-7 {
        fill: #9f6b48;
      }

      .cls-8 {
        fill: none;
      }
    </style>
  </defs>
  <rect class="cls-1" y="484.88" width="846.58" height="365.51"/>
  <rect class="cls-11" x="0" y="116.73" width="846.58" height="368.49"/>
  <rect class="cls-10" x="362.65" y="366.46" width="848.49" height="119.38" transform="translate(360.74 1213.04) rotate(-90)"/>
  <rect class="cls-10" width="846.58" height="119.38"/>
  <line class="cls-9" y1="484.88" x2="727.2" y2="484.88"/>
  <polygon class="cls-9" points="440.42 484.88 286.78 484.88 286.78 156.99 286.78 119.38 440.42 119.38 440.42 484.88"/>
  <polygon class="cls-7" points="199.21 119.38 286.78 200.44 286.78 259.35 130.21 119.38 199.21 119.38"/>
  <polygon class="cls-7" points="528 119.38 440.42 200.44 440.42 259.35 596.99 119.38 528 119.38"/>
  <path class="cls-8" d="M307.6,119.72s15.1,40.89,8.75,73.67c-.44,2.27-1.11,4.48-1.94,6.63-3.82,9.92-16.4,45.06-11.16,64.63.17.64.31,1.27.37,1.93.74,7.11,5.23,50.79,4.71,62.19-.1,2.13.11,4.26.69,6.32,3.91,13.8,16.68,62.98,12.02,102.9-.55,4.68-2.24,9.14-4.79,13.1-4.98,7.74-13.21,22.5-12.1,34.14"/>
  <path class="cls-8" d="M421.7,119.72s15,19.48,8.65,48.32c0,0-8.65,32.3-.29,42.11,0,0,8.6,12.4,10.36,24.8"/>
  <path class="cls-8" d="M391.42,119.72s-7.21,47.16,0,99.94c7.21,52.78,1.15,85.37,1.15,85.37,0,0,1.15,47.87,10.38,75.85,6.41,19.43.99,50.14-2.91,67.08-1.95,8.46-1.69,17.28.71,25.62l3.35,11.65"/>
  <path class="cls-8" d="M333.45,119.72s8.94,40.32,6.06,69.99c0,0,21.05,47.55.57,74.94,0,0-22.49,19.03-21.05,67.2,0,0,3.75,40.95,21.63,68.35,0,0,21.63,34.9,6.34,70.08,0,0-4.9,10.57,3.46,14.94"/>
  <path class="cls-8" d="M323.64,208.41s-16.65,18.1-9.23,55.09"/>
  <path class="cls-8" d="M323.64,264.94c.87-.87,23.07-23.65,10.67-53.93"/>
  <line class="cls-8" x1="325.66" y1="227.74" x2="323.64" y2="242.44"/>
  <path class="cls-8" d="M440.42,282.53s-24.49,2.88-22.18,67.49c0,0,22.97,24.21,12.82,66.04-.42,1.73-23.49,25.09-17.72,44.99,0,0,16.7,5.48,17.72,23.07"/>
  <path class="cls-9" d="M352.47,287.16s-23.56,24.94-7.87,78.84"/>
  <path class="cls-9" d="M373.5,290.38c-.34,1.21,17.56,25.74-9.89,77.64"/>
  <line class="cls-9" x1="358.88" y1="315.44" x2="356.65" y2="339.96"/>
  <line class="cls-9" x1="546.09" y1="119.38" x2="440.42" y2="215.56"/>
  <line class="cls-9" x1="563.55" y1="119.38" x2="440.42" y2="228.93"/>
  <line class="cls-9" x1="580.26" y1="119.38" x2="440.42" y2="242.1"/>
  <line class="cls-9" x1="181.12" y1="119.38" x2="286.78" y2="215.56"/>
  <line class="cls-9" x1="163.66" y1="119.38" x2="286.78" y2="228.93"/>
  <line class="cls-9" x1="146.94" y1="119.38" x2="286.78" y2="242.1"/>
  <polygon class="cls-4" points="310.53 485.99 362.17 509.2 345.79 540.3 419.65 485.64 310.53 485.99"/>
  <path class="cls-4" d="M317.91,849.67s54.93-13.94,37.04-43.8l46.68,26.12,27.84,17.89-111.56-.21Z"/>
  <path class="cls-4" d="M14.73,526.48s86.24,8.09,94.94-8.09c0,0-12.29,36.08-8.3,72.15l-23.28-45.41-63.35-18.66Z"/>
  <polygon class="cls-4" points="459.93 691.93 481.53 704.37 509.87 683.23 486 714.33 459.93 691.93"/>
  <polygon class="cls-4" points="668.83 500.98 706.22 500.98 702.32 540.16 698.8 508.44 668.83 500.98"/>
  <path class="cls-4" d="M598.98,631.73s79.32,32.97,72.69,98.28c0,0-16.01-66.55-40.87-44.16l-3.59-24.88-28.23-29.23Z"/>
  <path class="cls-4" d="M132.46,649.02l-53.78,31.72-55.74-26.12s42.9,28.61,42.06,49.14l67.47-54.74Z"/>
  <polygon class="cls-4" points="10 819.45 22.94 807.01 28.36 813.23 10 819.45"/>
  <polygon class="cls-4" points="372.25 599.26 357.47 613.56 364.15 596.77 372.25 599.26"/>
  <path class="cls-4" d="M219.76,554.47s6.23,11.82,18.02,8.71l-14.89,8.09-3.13-16.79Z"/>
  <polygon class="cls-4" points="473.37 591.84 556.72 581.27 520.93 591.84 473.37 591.84"/>
  <polygon class="cls-4" points="527.8 537.68 531.52 525.86 521.76 531.77 527.8 537.68"/>
  <polyline class="cls-8" points="171.28 708.46 212.46 676.38 264.07 683.23 281.77 674.22 304.08 680.91 346.68 698.15 387.68 672.25"/>
  <polyline class="cls-8" points="592.66 524.23 619.1 556.12 640.36 562.87 638.76 596.77 656.55 590.55 656.55 611.62"/>
  <polyline class="cls-8" points="132.46 515.18 159.75 525.86 155.49 550.74"/>
  <path class="cls-6" d="M271.84,679.27s-10.31-3.09-13.06-14.51c0,0,11.32-.45,15.78,7.25,0,0-4.8-13.95,1.72-20.64,0,0,6.87,6.24,7.55,13.95v2.93s5.92-14.12,13.25-9.79c0,0,2.38,11.14-3.79,19.2l-11.52-3.46-9.94,5.06Z"/>
  <path class="cls-6" d="M153.86,523.55s-2.58-4.5,0-8.37c0,0,3.14,5.5,0,8.37Z"/>
  <path class="cls-2" d="M441.05,297.65l4.59-30.39s.02-.06.04-.09l27.07-35.99c.13-.18-1.23.99-1.39,1.14l-29.21,26.03s-1.26,1.19-1.27,1.25v37.66c0,.28.12.65.17.38Z"/>
  <polygon class="cls-2" points="440.42 142.83 440.42 154.65 442.9 147.47 463.75 148.09 447.22 145.3 440.42 142.83"/>
  <path class="cls-2" d="M607.38,202.68l-3.41,6.41-6.15,8.91-10.44,9.34-4.96,2.94s9.58-4.26,10.08-4.63,14.87-13.56,14.87-13.56l14.81,11.93,5.06,2.41-8.32-7.12-6.42-7.6-3.83-7.1-1.29-1.94Z"/>
  <path class="cls-8" d="M602.77,186.85s5.74,56.2,82.89,55.6"/>
  <path class="cls-2" d="M521.6,321.79l16.73,12.92,4.5-2.18s-5.91,8.3-1.8,31.45l-1.43,5.39s-.94-33.99-17.99-47.57Z"/>
  <path class="cls-8" d="M527.97,234.6s59.26,16.87,79.41-32.63"/>
  <path class="cls-8" d="M700.32,162.39s35.38,7.84,21.23,40.5"/>
  <path class="cls-8" d="M470.35,311.15c3.54,4.01,67.22-19.48,69.24,61.87"/>
  <polygon class="cls-2" points="614.88 311.92 624.05 315.18 635.59 316.46 649.55 313.52 664.12 304.66 653.97 313.97 639.5 325.37 625.66 318.05 614.88 311.92"/>
  <path class="cls-8" d="M600.75,302.47s44.48,44.2,84.91-24.54"/>
  <path class="cls-8" d="M682.12,341.96c10.61,8.72,37.4-14.31,38.41,41.03"/>
  <path class="cls-8" d="M461.25,373.02s1.52,38.95,43.72,32.08"/>
  <path class="cls-2" d="M609.1,138.72s6,20.29,10.91,21.12c0,0,9.98,5.7,18.21,3.17,0,0-18.21-1.5-29.12-24.29Z"/>
  <path class="cls-8" d="M604.84,126.62s8.59,43.41,49.03,35.39"/>
  <polygon class="cls-2" points="608.65 435.14 620.38 440.06 632.45 443.45 618.39 443.45 608.65 435.14"/>
  <path class="cls-2" d="M673.79,443.73l11.87-.28-1.84,4.86s6.98-6.19,7.18-7.34l4.77-3.6-9.12,3.37-7.79,2.1-5.07.88Z"/>
  <path class="cls-8" d="M578.57,413.12c1.96,1.72,55.54,63.68,141.97,12.08"/>
  <path class="cls-8" d="M440.42,142.21s26.75,15.22,42.65-4.84"/>
  <path class="cls-5" d="M640.29,444.81c-.64-.32,16.57.87,16.57.87l12.14-.87s4.02,11.07-2.23,19.57c0,0-1.96,7.01,2.59,13.76,2.55,3.78.11,3.9-2.52,3.27-2.46-.59-4.49-2.5-5.48-5.12-2.07-5.49-6.61-14.37-12.17-6.44,0,0-1.43,3.04-1.52,8.5,0,0,2.23,10.73-9.82.51,0,0-8.9-9.51,11.71-18.92,0,0,12.64-4.23-9.26-15.12Z"/>
  <path class="cls-5" d="M641.41,449.2s-2.41,4.45-2.41,6.78c0,0,3.75,4.05,5.98-.71,0,0-.45-3.24-3.57-6.07Z"/>
  <line class="cls-3" x1="440.42" y1="141.9" x2="440.42" y2="156.08"/>
  <polygon class="cls-2" points="159.99 146.79 161.53 152.48 235.76 218.9 255.23 231.94 159.99 146.79"/>
  <polygon class="cls-2" points="254.98 119.72 279.04 128.39 286.19 156.59 286.49 120.23 254.98 119.72"/>
  <path class="cls-8" d="M276.55,143.92s1.42-16.7-28.45-14.41"/>
  <path class="cls-2" d="M257.45,248.12l13.31,8.08.36,11.71s.28-6.26-13.67-19.79Z"/>
  <path class="cls-2" d="M176.8,286.41l4.13,15.02,2.1,17.21s8.85-8.51,20.84-1.99l6.42-.09s-20.94-2.67-33.48-30.14Z"/>
  <path class="cls-8" d="M221.98,337.19s50.29,6.85,45.74-49.28"/>
  <path class="cls-2" d="M16.39,210.12l-11.86-6.35-4.13,5.9v-15.08s3.68,6.42,15.99,15.53Z"/>
  <path class="cls-8" d="M216.22,317.55c-.91.24-43.32-4.28-43.32-57.11"/>
  <path class="cls-8" d="M195.92,243.19s53.32-27.52,76.04,26.65"/>
  <path class="cls-8" d="M0,193.35s18.99,34.63,53.53,18.41"/>
  <path class="cls-8" d="M58.68,120.47s13.03,16.51,2.73,39.2"/>
  <path class="cls-8" d="M117.46,190.46s23.93,39.49,60.59,22.29"/>
  <path class="cls-2" d="M83.44,406.88l12.81-12.83.61-5.17,9.12,10.18,7.54,2.57-8.21-8.38-6.53-10.53-1.93-3.37s-7.87,23.23-13.41,27.53Z"/>
  <path class="cls-8" d="M8.69,430.49s69.68,17.97,88.16-52.67"/>
  <path class="cls-8" d="M168.96,417.35s-78.77,7.32-76.95-71.01"/>
  <path class="cls-2" d="M248.55,461.2l5.75.72,6.88-2.71-1.59,4.8s8.14-9.5,7.58-13.23l-.51-2.66s-7.11,11.34-18.11,13.07Z"/>
  <path class="cls-8" d="M238.95,459.81s23.33,10.25,33.02-24.89"/>
  <path class="cls-8" d="M65.37,293.27s36.03,17.2,52.08-23.43"/>
  <path class="cls-8" d="M29.9,253.02s-11.51,21.58,6.36,31.46"/>
  <path class="cls-8" d="M846.58,33.38s-144.34-26.85-200.48-7.32c-50.43,17.54-202.43,6.94-232.81,4.61-3.38-.26-6.69-1.03-9.84-2.3-16.72-6.71-76.03-28.54-114.06-16.95-44.63,13.6-116.46,7.32-116.46,7.32C172.93,18.74,17.1-14.04,0,30.94"/>
  <path class="cls-8" d="M846.58,66.16s-109.12-36.61-161.08-20.57c-26.76,8.26-47.87,8.47-62.06,6.74-12.07-1.48-24.36.35-35.39,5.45-9.03,4.18-23.15,8.53-44.81,10.82-34.37,3.63-99.22-10.83-135.66-20.01-15.98-4.03-32.84-1.98-47.45,5.65-22.73,11.87-62.65,27.49-112.88,25.52-48.51-1.91-71.29-15.59-81.71-26.05-9.73-9.77-22.35-16.11-35.91-18.6C95,28.72,35.81,23.59,0,52.56"/>
  <path class="cls-8" d="M846.58,97.19s-53.33,19.53-98.31,4.53c0,0-61.46-36.61-115.29-12.55,0,0-98.81,45.33-249.44-2.79,0,0-27.88-8.76-43.32,6.56-1.68,1.67-3.51,3.18-5.56,4.37-10.19,5.91-41.28,19.48-104.24,13.13,0,0-89.56,0-117.46-25.45C112.96,84.99,44.65,46.63,0,104.52"/>
  <path class="cls-8" d="M802.77,66.86s-43.97-18.45-77.48-8.53"/>
  <path class="cls-8" d="M808.82,87.78s-32.5,17.78-72.68-6.28"/>
  <line class="cls-8" x1="780.34" y1="76.27" x2="751.16" y2="72.53"/>
  <path class="cls-8" d="M346.48,34.43c-14.89-1.05-96.83-17.13-155.06,1.55"/>
  <path class="cls-8" d="M329.46,55.4s-84.59,26.9-122.82,0"/>
  <line class="cls-8" x1="282.07" y1="44.54" x2="242.44" y2="44.54"/>
  <path class="cls-8" d="M84.02,99.98s-27.89-11.86-44.63,0"/>
  <path class="cls-6" d="M709.95,41.57s-18.52,5.09-19.53,19.79c0,0-3.02,21.29,15.73,3.8,0,0,2.02-7.35-1.79-14.2,0,0,2.28-7.1,9.38,2.28,0,0,9.63,3.29,1.27-11.79l-5.06.11Z"/>
  <path class="cls-8" d="M732.6,119.72s12.96,81.75,7.51,147.27c-.38,4.53-.95,8.95-1.67,13.26-3.28,19.84-14.07,90.08-9.58,129.19.15,1.27.26,2.54.32,3.85.64,14.21,4.49,101.54,4.04,124.31-.08,4.26.1,8.52.6,12.63,3.36,27.58,14.31,125.91,10.31,205.71-.47,9.35-1.93,18.28-4.11,26.2-4.27,15.46-11.33,44.97-10.38,68.25"/>
  <path class="cls-8" d="M830.52,119.72s12.87,38.94,7.42,96.59c0,0-7.42,64.57-.25,84.17,0,0,7.38,24.79,8.89,49.58"/>
  <path class="cls-8" d="M804.53,119.72s-6.19,94.28,0,199.79c6.19,105.51.99,170.65.99,170.65,0,0,.99,95.71,8.91,151.63,5.5,38.85.85,100.24-2.5,134.1-1.67,16.91-1.45,34.53.61,51.21l2.88,23.29"/>
  <path class="cls-8" d="M754.78,119.72s7.67,80.61,5.2,139.91c0,0,18.06,95.05.49,149.82,0,0-19.3,38.05-18.06,134.33,0,0,3.22,81.87,18.56,136.64,0,0,18.56,69.76,5.44,140.1,0,0-4.21,21.12,2.97,29.88"/>
  <path class="cls-8" d="M746.37,297.02s-14.29,36.18-7.92,110.12"/>
  <path class="cls-8" d="M746.37,410.02c.74-1.73,19.8-47.28,9.16-107.81"/>
  <line class="cls-8" x1="748.1" y1="335.65" x2="746.37" y2="365.05"/>
  <path class="cls-8" d="M846.58,445.19s-21.01,5.77-19.03,134.91c0,0,19.71,48.39,11,132.03-.36,3.46-20.16,50.16-15.21,89.94,0,0,14.33,10.95,15.21,46.12"/>
  <path class="cls-9" d="M771.1,454.45s-20.22,49.86-6.76,157.61"/>
  <path class="cls-9" d="M789.15,460.88c-.29,2.41,15.07,51.47-8.49,155.2"/>
  <line class="cls-9" x1="776.61" y1="510.98" x2="774.7" y2="559.99"/>
</svg>