<?xml version="1.0" encoding="UTF-8"?>
<svg id="Layer_1" xmlns="http://www.w3.org/2000/svg" viewBox="0 0 846.58 850.39">
  <defs>
    <style>
      .cls-1 {
        fill: #b28d62;
      }

      .cls-2 {
        fill: #c49a6c;
      }

      .cls-2, .cls-3, .cls-4, .cls-5 {
        stroke: #231f20;
        stroke-miterlimit: 10;
      }

      .cls-3 {
        fill: #006838;
      }

      .cls-4 {
        fill: none;
      }

      .cls-5 {
        fill: #8b5e3c;
      }
    </style>
  </defs>
  <rect class="cls-2" x=".39" y=".95" width="849.05" height="731.42" transform="translate(849.83 733.32) rotate(-180)"/>
  <rect class="cls-5" x="-365.51" y="365.51" width="848.49" height="119.38" transform="translate(483.93 366.46) rotate(90)"/>
  <rect class="cls-5" x="-.95" y="730.06" width="850.39" height="119.38" transform="translate(848.49 1579.5) rotate(-180)"/>
  <path class="cls-4" d="M113.32,0s-12.96,81.75-7.51,147.27c.38,4.53.95,8.95,1.67,13.26,3.28,19.84,14.07,90.08,9.58,129.19-.15,1.27-.26,2.54-.32,3.85-.64,14.21-4.49,101.54-4.04,124.31.08,4.26-.1,8.52-.6,12.63-3.36,27.58-14.31,125.91-10.31,205.71.47,9.35,1.93,18.28,4.11,26.2,4.27,15.46,11.33,44.97,10.38,68.25"/>
  <path class="cls-4" d="M15.4,0S2.53,38.94,7.98,96.59c0,0,7.42,64.57.25,84.17,0,0-7.38,24.79-8.89,49.58"/>
  <path class="cls-4" d="M41.39,0s6.19,94.28,0,199.79c-6.19,105.51-.99,170.65-.99,170.65,0,0-.99,95.71-8.91,151.63-5.5,38.85-.85,100.24,2.5,134.1,1.67,16.91,1.45,34.53-.61,51.21l-2.88,23.29"/>
  <path class="cls-4" d="M91.13,0s-7.67,80.61-5.2,139.91c0,0-18.06,95.05-.49,149.82,0,0,19.3,38.05,18.06,134.33,0,0-3.22,81.87-18.56,136.64,0,0-18.56,69.76-5.44,140.1,0,0,4.21,21.12-2.97,29.88"/>
  <path class="cls-4" d="M99.55,177.31s14.29,36.18,7.92,110.12"/>
  <path class="cls-4" d="M99.55,290.31c-.74-1.73-19.8-47.28-9.16-107.81"/>
  <line class="cls-4" x1="97.82" y1="215.93" x2="99.55" y2="245.34"/>
  <path class="cls-4" d="M-.66,325.47s21.01,5.77,19.03,134.91c0,0-19.71,48.39-11,132.03.36,3.46,20.16,50.16,15.21,89.94,0,0-14.33,10.95-15.21,46.12"/>
  <path class="cls-5" d="M74.81,334.73s20.22,49.86,6.76,157.61"/>
  <path class="cls-5" d="M56.77,341.16c.29,2.41-15.07,51.47,8.49,155.2"/>
  <line class="cls-5" x1="69.31" y1="391.27" x2="71.22" y2="440.27"/>
  <path class="cls-4" d="M846.58,760.78s-144.34-26.85-200.48-7.32c-50.43,17.54-202.43,6.94-232.81,4.61-3.38-.26-6.69-1.03-9.84-2.3-16.72-6.71-76.03-28.54-114.06-16.95-44.63,13.6-116.46,7.32-116.46,7.32C172.93,746.13,17.1,713.36,0,758.34"/>
  <path class="cls-4" d="M846.58,793.56s-109.12-36.61-161.08-20.57c-26.76,8.26-47.87,8.47-62.06,6.74-12.07-1.48-24.36.35-35.39,5.45-9.03,4.18-23.15,8.53-44.81,10.82-34.37,3.63-99.22-10.83-135.66-20.01-15.98-4.03-32.84-1.98-47.45,5.65-22.73,11.87-62.65,27.49-112.88,25.52-48.51-1.91-71.29-15.59-81.71-26.05-9.73-9.77-22.35-16.11-35.91-18.6C95,756.12,35.81,750.99,0,779.96"/>
  <path class="cls-4" d="M846.58,824.59s-53.33,19.53-98.31,4.53c0,0-61.46-36.61-115.29-12.55,0,0-98.81,45.33-249.44-2.79,0,0-27.88-8.76-43.32,6.56-1.68,1.67-3.51,3.18-5.56,4.37-10.19,5.91-41.28,19.48-104.24,13.13,0,0-89.56,0-117.46-25.45C112.96,812.38,44.65,774.03,0,831.91"/>
  <path class="cls-4" d="M802.77,794.25s-43.97-18.45-77.48-8.53"/>
  <path class="cls-4" d="M808.82,815.17s-32.5,17.78-72.68-6.28"/>
  <line class="cls-4" x1="780.34" y1="803.67" x2="751.16" y2="799.93"/>
  <path class="cls-4" d="M346.48,761.83c-14.89-1.05-96.83-17.13-155.06,1.55"/>
  <path class="cls-4" d="M329.46,782.8s-84.59,26.9-122.82,0"/>
  <line class="cls-4" x1="282.07" y1="771.94" x2="242.44" y2="771.94"/>
  <path class="cls-4" d="M84.02,827.38s-27.89-11.86-44.63,0"/>
  <path class="cls-3" d="M763.89,802.63s-2.96-4.5,0-8.37c0,0,3.6,5.5,0,8.37Z"/>
  <polygon class="cls-1" points="479.61 718.39 471.22 649.21 412.18 632.13 541.13 622.32 479.61 718.39"/>
  <path class="cls-1" d="M669.26,12.28s20.23,59.91-33.79,85.26l69.55,1.38,44.66-2.18-80.43-84.45Z"/>
  <path class="cls-1" d="M131.13,624.99s90.16-15.35,99.25,15.35c0,0-12.85-68.47-8.68-136.95l-24.33,86.18-66.23,35.42Z"/>
  <polygon class="cls-1" points="740.79 318.45 763.37 294.84 793 334.98 768.04 275.95 740.79 318.45"/>
  <polygon class="cls-1" points="344.08 297.97 365.21 224.77 355.13 196.44 375.5 229.49 344.08 297.97"/>
  <polygon class="cls-1" points="797.43 698.97 836.51 698.97 832.43 624.59 828.76 684.8 797.43 698.97"/>
  <path class="cls-1" d="M453.56,149.55s-35.65-97.58-156.24-127.11c0,0,115.94,52.87,67.7,65.33l44.07,17.37,44.46,44.42Z"/>
  <path class="cls-1" d="M249.55,392.41l-56.22-60.21-58.27,49.58s44.85-54.31,43.96-93.27l70.53,103.89Z"/>
  <polygon class="cls-1" points="121.54 68.93 135.05 92.54 140.72 80.74 121.54 68.93"/>
  <polygon class="cls-1" points="500.22 486.86 484.78 459.71 491.75 491.58 500.22 486.86"/>
  <path class="cls-1" d="M340.81,571.86s6.51-22.43,18.84-16.53l-15.57-15.35-3.27,31.88Z"/>
  <polygon class="cls-1" points="619.27 578.95 706.4 599.02 668.99 578.95 619.27 578.95"/>
  <polygon class="cls-1" points="662.83 603.74 666.72 626.17 656.52 614.95 662.83 603.74"/>
  <polyline class="cls-4" points="393.76 280.81 436.81 341.7 490.77 328.71 509.27 345.82 532.59 333.11 577.13 300.38 619.99 349.55"/>
  <polyline class="cls-4" points="730.64 629.25 758.28 568.73 780.5 555.92 778.83 491.58 797.43 503.39 797.43 463.38"/>
  <polyline class="cls-4" points="278.08 680.19 306.61 659.92 302.16 612.69"/>
  <path class="cls-3" d="M586.53,312.03s10.37-6.56,11.82-28.36c0,0-11.87-.09-15.57,14.81,0,0,3.28-26.74-4.35-38.97,0,0-6.4,12.29-6.15,26.93l.36,5.55s-7.93-26.34-15.04-17.64c0,0-1.11,21.26,6.33,36.11l11.59-7.33,10.99,8.9Z"/>
  <path class="cls-3" d="M758.49,568.83s-6.01-4.53-4.79-13.59c0,0-3.58,6.26-.09,15.2,0,0-7.1-5.34-7.51-12.89,0,0-2.06,9.42,1.28,16.98,0,0-5.01-4.12-6.97,2.68,0,0,.76,3.96,9.09,4.83.36.04.74.21,1.13.1.83-.25,2.54-1.48,2.54-1.48l5.32-11.82Z"/>
  <path class="cls-3" d="M300.45,664.29s-2.7,8.54,0,15.89c0,0,3.29-10.44,0-15.89Z"/>
</svg>