<?xml version="1.0" encoding="UTF-8"?>
<svg id="Layer_1" xmlns="http://www.w3.org/2000/svg" viewBox="0 0 846.58 850.39">
  <defs>
    <style>
      .cls-1 {
        fill: #5e5449;
      }

      .cls-2 {
        fill: #726658;
      }

      .cls-2, .cls-3, .cls-4, .cls-5, .cls-6, .cls-7, .cls-8, .cls-9, .cls-10, .cls-11, .cls-12 {
        stroke: #231f20;
        stroke-miterlimit: 10;
      }

      .cls-13 {
        fill: #b28d62;
      }

      .cls-3 {
        fill: #65a246;
      }

      .cls-4 {
        fill: #8e7e6f;
      }

      .cls-5 {
        fill: #231f20;
      }

      .cls-6 {
        fill: #c49a6c;
      }

      .cls-7 {
        fill: #006838;
      }

      .cls-8 {
        fill: #9c5621;
      }

      .cls-9 {
        fill: #9f6b48;
      }

      .cls-10 {
        fill: none;
      }

      .cls-11 {
        fill: #8b5e3c;
      }

      .cls-12 {
        fill: #603913;
      }
    </style>
  </defs>
  <rect class="cls-2" y="119.38" width="846.58" height="365.51"/>
  <rect class="cls-11" width="846.58" height="119.38"/>
  <polyline class="cls-11" points="0 484.88 346.47 484.88 846.58 484.88"/>
  <rect class="cls-6" y="484.88" width="846.58" height="365.51"/>
  <path class="cls-3" d="M81.01,119.38s12.76,19.59,7.51,33.1-3.75,33.03,9.01,45.04,24.02,10.98,22.52-7.65c-.56-6.98,1.2-9.66,3.62-10.28,5.38-1.37,9.53-5.65,9.93-11.19.94-13.23,4.82-30.36,18.74-29.43,22.52,1.5,37.58-19.59,37.58-19.59h-108.89Z"/>
  <rect class="cls-5" x="308.87" y="244.68" width="240.21" height="240.21"/>
  <path class="cls-5" d="M308.87,244.68s115.63-124.57,240.21,0"/>
  <rect class="cls-9" x="243.61" y="189.31" width="65.26" height="295.57"/>
  <rect class="cls-9" x="549.08" y="189.31" width="65.26" height="295.57"/>
  <rect class="cls-9" x="395.5" y="-50.27" width="65.26" height="413.91" transform="translate(271.44 584.81) rotate(-90)"/>
  <polygon class="cls-13" points="416.39 485.23 479.19 508.44 459.27 539.54 549.08 484.88 416.39 485.23"/>
  <path class="cls-13" d="M187.23,849.23s66.79-13.94,45.04-43.8l56.76,26.12,33.85,17.89-135.65-.21Z"/>
  <path class="cls-13" d="M684.71,759.92s104.87,8.09,115.44-8.09c0,0-14.94,36.08-10.1,72.15l-28.31-45.41-77.04-18.66Z"/>
  <polygon class="cls-13" points="547.1 691.31 573.36 703.75 607.82 682.6 578.8 713.7 547.1 691.31"/>
  <polygon class="cls-13" points="258.86 698.15 283.43 736.72 271.71 751.65 295.41 734.23 258.86 698.15"/>
  <polygon class="cls-13" points="782.75 494.96 828.21 494.96 823.46 534.15 819.19 502.43 782.75 494.96"/>
  <path class="cls-13" d="M11.91,497.87s96.46,32.97,88.38,98.28c0,0-19.46-66.55-49.7-44.16l-4.36-24.88-34.32-29.23Z"/>
  <path class="cls-13" d="M148.9,648.39l-65.4,31.72-67.78-26.12s52.17,28.61,51.14,49.14l82.04-54.74Z"/>
  <polygon class="cls-13" points="0 818.82 15.73 806.38 22.32 812.6 0 818.82"/>
  <polygon class="cls-13" points="440.48 598.63 422.51 612.94 430.63 596.15 440.48 598.63"/>
  <path class="cls-13" d="M255.05,553.85s7.57,11.82,21.92,8.71l-18.11,8.09-3.81-16.79Z"/>
  <polygon class="cls-13" points="578.95 550.12 680.3 539.54 636.79 550.12 578.95 550.12"/>
  <polygon class="cls-13" points="629.63 537.05 634.15 525.24 622.28 531.15 629.63 537.05"/>
  <polyline class="cls-10" points="317.66 562.25 364.34 599.08 378.39 660.64 393.93 678.03 396.47 705.85 397.1 760.45 437.88 799.1"/>
  <polyline class="cls-10" points="708.5 523.61 740.64 555.5 766.5 562.25 764.55 596.15 786.18 589.93 786.18 611"/>
  <polyline class="cls-10" points="148.9 514.56 182.09 525.24 176.91 550.12"/>
  <path class="cls-7" d="M734.38,549.29s6.96-2.4,5.48-7.18c0,0,4.21,3.29.21,8.01,0,0,8.23-2.84,8.65-6.81,0,0,2.46,4.96-1.38,8.95,0,0,5.81-2.19,8.12,1.39,0,0-.86,2.09-10.54,2.57-.42.02-.86.11-1.31.05-.97-.13-2.97-.77-2.97-.77l-6.26-6.21Z"/>
  <path class="cls-7" d="M174.92,522.93s-3.14-4.5,0-8.37c0,0,3.82,5.5,0,8.37Z"/>
  <path class="cls-10" d="M-.78,33.42s144.34-26.85,200.48-7.32c50.43,17.54,202.43,6.94,232.81,4.61,3.38-.26,6.69-1.03,9.84-2.3,16.72-6.71,76.03-28.54,114.06-16.95,44.63,13.6,116.46,7.32,116.46,7.32,0,0,155.83-32.78,172.93,12.2"/>
  <path class="cls-10" d="M-.78,66.19s109.12-36.61,161.08-20.57c26.76,8.26,47.87,8.47,62.06,6.74,12.07-1.48,24.36.35,35.39,5.45,9.03,4.18,23.15,8.53,44.81,10.82,34.37,3.63,99.22-10.83,135.66-20.01,15.98-4.03,32.84-1.98,47.45,5.65,22.73,11.87,62.65,27.49,112.88,25.52,48.51-1.91,71.29-15.59,81.71-26.05,9.73-9.77,22.35-16.11,35.91-18.6,34.64-6.38,93.82-11.52,129.63,17.46"/>
  <path class="cls-10" d="M-.78,97.23s53.33,19.53,98.31,4.53c0,0,61.46-36.61,115.29-12.55,0,0,98.81,45.33,249.44-2.79,0,0,27.88-8.76,43.32,6.56,1.68,1.67,3.51,3.18,5.56,4.37,10.19,5.91,41.28,19.48,104.24,13.13,0,0,89.56,0,117.46-25.45,0,0,68.31-38.36,112.96,19.53"/>
  <path class="cls-10" d="M43.03,66.89s43.97-18.45,77.48-8.53"/>
  <path class="cls-10" d="M36.98,87.81s32.5,17.78,72.68-6.28"/>
  <line class="cls-10" x1="65.46" y1="76.31" x2="94.64" y2="72.56"/>
  <path class="cls-10" d="M499.33,34.46c14.89-1.05,96.83-17.13,155.06,1.55"/>
  <path class="cls-10" d="M516.35,55.43s84.59,26.9,122.82,0"/>
  <line class="cls-10" x1="563.73" y1="44.57" x2="603.36" y2="44.57"/>
  <path class="cls-10" d="M761.78,100.02s27.89-11.86,44.63,0"/>
  <path class="cls-7" d="M180,20.82s18.52,5.09,19.53,19.79c0,0,3.02,21.29-15.73,3.8,0,0-2.02-7.35,1.79-14.2,0,0-2.28-7.1-9.38,2.28,0,0-9.63,3.29-1.27-11.79l5.06.11Z"/>
  <path class="cls-1" d="M742.91,217.35l-2.88,6.41-5.2,8.91-8.84,9.34-4.2,2.94s8.11-4.26,8.54-4.63,12.59-13.56,12.59-13.56l12.54,11.93,4.28,2.41-7.05-7.12-5.44-7.6-3.24-7.1-1.09-1.94Z"/>
  <path class="cls-10" d="M739.01,201.51s4.86,56.2,70.17,55.6"/>
  <path class="cls-1" d="M670.29,336.45l14.16,12.92,3.81-2.18s-5,8.3-1.52,31.45l-1.21,5.39s-.79-33.99-15.23-47.57Z"/>
  <path class="cls-10" d="M675.69,249.27s50.17,16.87,67.23-32.63"/>
  <path class="cls-10" d="M821.59,177.05s29.95,7.84,17.97,40.5"/>
  <path class="cls-10" d="M626.91,325.82c3,4.01,56.91-19.48,58.62,61.87"/>
  <path class="cls-10" d="M619.21,387.68s1.28,38.95,37.01,32.08"/>
  <path class="cls-1" d="M729.78,146.13s5.08,20.29,9.23,21.12c0,0,8.45,5.7,15.42,3.17,0,0-15.42-1.5-24.65-24.29Z"/>
  <path class="cls-10" d="M726.18,134.04s7.27,43.41,41.5,35.39"/>
  <polygon class="cls-1" points="743.99 449.8 753.92 454.73 764.14 458.12 752.23 458.12 743.99 449.8"/>
  <path class="cls-1" d="M799.14,458.39l10.05-.28-1.56,4.86s5.91-6.19,6.08-7.34l4.04-3.6-7.72,3.37-6.59,2.1-4.3.88Z"/>
  <path class="cls-10" d="M718.52,427.78c1.66,1.72,47.02,63.68,120.18,12.08"/>
  <path class="cls-1" d="M115.2,229.44l2.88,6.41,5.2,8.91,8.84,9.34,4.2,2.94s-8.11-4.26-8.54-4.63-12.59-13.56-12.59-13.56l-12.54,11.93-4.28,2.41,7.05-7.12,5.44-7.6,3.24-7.1,1.09-1.94Z"/>
  <path class="cls-10" d="M119.1,213.61s-4.86,56.2-70.17,55.6"/>
  <path class="cls-1" d="M187.82,348.55l-14.16,12.92-3.81-2.18s5,8.3,1.52,31.45l1.21,5.39s.79-33.99,15.23-47.57Z"/>
  <path class="cls-10" d="M182.43,261.36s-50.17,16.87-67.23-32.63"/>
  <path class="cls-10" d="M36.53,189.15s-29.95,7.84-17.97,40.5"/>
  <path class="cls-10" d="M231.21,337.91c-3,4.01-56.91-19.48-58.62,61.87"/>
  <path class="cls-10" d="M238.91,399.78s-1.28,38.95-37.01,32.08"/>
  <path class="cls-1" d="M174.23,152.18s-5.08,20.29-9.23,21.12c0,0-8.45,5.7-15.42,3.17,0,0,15.42-1.5,24.65-24.29Z"/>
  <path class="cls-10" d="M177.83,140.09s-7.27,43.41-41.5,35.39"/>
  <polygon class="cls-1" points="114.13 461.9 104.2 466.82 93.98 470.21 105.89 470.21 114.13 461.9"/>
  <path class="cls-1" d="M58.98,470.49l-10.05-.28,1.56,4.86s-5.91-6.19-6.08-7.34l-4.04-3.6,7.72,3.37,6.59,2.1,4.3.88Z"/>
  <path class="cls-10" d="M139.59,439.88c-1.66,1.72-47.02,63.68-120.18,12.08"/>
  <line class="cls-9" x1="221.17" y1="133.33" x2="635.08" y2="132.69"/>
  <line class="cls-9" x1="221.17" y1="146.46" x2="635.08" y2="145.82"/>
  <line class="cls-9" x1="221.17" y1="159.67" x2="635.08" y2="159.03"/>
  <line class="cls-9" x1="221.17" y1="170.63" x2="635.08" y2="169.98"/>
  <line class="cls-9" x1="221.17" y1="180.29" x2="635.08" y2="179.65"/>
  <line class="cls-9" x1="558.55" y1="484.88" x2="557.9" y2="189.31"/>
  <line class="cls-9" x1="571.68" y1="484.88" x2="571.03" y2="189.31"/>
  <line class="cls-9" x1="584.89" y1="484.88" x2="584.24" y2="189.31"/>
  <line class="cls-9" x1="595.84" y1="484.88" x2="595.2" y2="189.31"/>
  <line class="cls-9" x1="605.51" y1="484.88" x2="604.86" y2="189.31"/>
  <line class="cls-9" x1="254.8" y1="485.44" x2="254.16" y2="189.87"/>
  <line class="cls-9" x1="267.93" y1="485.44" x2="267.29" y2="189.87"/>
  <line class="cls-9" x1="281.15" y1="485.44" x2="280.5" y2="189.87"/>
  <line class="cls-9" x1="292.1" y1="485.44" x2="291.46" y2="189.87"/>
  <line class="cls-9" x1="301.77" y1="485.44" x2="301.12" y2="189.87"/>
  <circle class="cls-5" cx="629.59" cy="138.63" r="2.68"/>
  <circle class="cls-5" cx="629.59" cy="175.14" r="2.68"/>
  <circle class="cls-5" cx="226.03" cy="139.57" r="2.68"/>
  <circle class="cls-5" cx="226.03" cy="175.14" r="2.68"/>
  <path class="cls-11" d="M614.33,208.56c0,1.28-60.81-32.78-77.68-86.36,0,0,15.68-1.93,22.99,0,0,0,31.79,65.08,62.94,67.66,0,0-8.24,5.81-8.24,18.69Z"/>
  <path class="cls-11" d="M243.42,208.24c0,1.28,60.81-32.78,77.68-86.36,0,0-15.68-1.93-22.99,0,0,0-31.79,65.08-62.94,67.66,0,0,8.24,5.81,8.24,18.69Z"/>
  <rect class="cls-12" x="569.52" y="317.23" width="28.07" height="32.89"/>
  <polygon class="cls-4" points="588.29 337.97 579.61 337.97 573.99 300.79 593.47 300.79 588.29 337.97"/>
  <path class="cls-8" d="M577.38,300.79s-6.26-6.44-3.4-21.27c0,0,2.85,8.22,5.63,7.87,0,0-2.23-14.66,3.94-21.09,0,0,8.85,8.58,8.13,18.77,0,0,5.36,1.43,5.9-5.54,0,0,3.75,12.69-6.97,21.27h-13.23Z"/>
  <rect class="cls-12" x="575.15" y="329.5" width="17.56" height="4.18"/>
</svg>