<?xml version="1.0" encoding="UTF-8"?>
<svg id="Layer_1" xmlns="http://www.w3.org/2000/svg" viewBox="0 0 846.58 850.39">
  <defs>
    <style>
      .cls-1 {
        fill: #5e5449;
      }

      .cls-2 {
        fill: #726658;
      }

      .cls-2, .cls-3, .cls-4, .cls-5, .cls-6, .cls-7, .cls-8 {
        stroke: #231f20;
        stroke-miterlimit: 10;
      }

      .cls-9 {
        fill: #b28d62;
      }

      .cls-3 {
        fill: #65a246;
      }

      .cls-4 {
        fill: #c49a6c;
      }

      .cls-5 {
        fill: #006838;
      }

      .cls-6 {
        fill: #9f6b48;
      }

      .cls-7 {
        fill: none;
      }

      .cls-8 {
        fill: #8b5e3c;
      }
    </style>
  </defs>
  <rect class="cls-4" x="0" y="484.88" width="846.58" height="365.51" transform="translate(846.58 1335.28) rotate(-180)"/>
  <rect class="cls-2" x="0" y="119.38" width="846.58" height="365.51" transform="translate(846.58 604.26) rotate(-180)"/>
  <rect class="cls-8" x="-364.56" y="366.46" width="848.49" height="119.38" transform="translate(-366.46 485.84) rotate(-90)"/>
  <polygon class="cls-1" points="373.99 119.03 398.05 127.7 405.2 155.9 405.5 119.54 373.99 119.03"/>
  <rect class="cls-8" x="0" y="0" width="846.58" height="119.38" transform="translate(846.58 119.38) rotate(-180)"/>
  <path class="cls-1" d="M559.97,297.8l4.59-30.39s.02-.06.04-.09l27.07-35.99c.13-.18-1.23.99-1.39,1.14l-29.21,26.03s-1.26,1.19-1.27,1.25v37.66c0,.28.12.65.17.38Z"/>
  <line class="cls-8" x1="846.58" y1="484.88" x2="119.38" y2="484.88"/>
  <polygon class="cls-8" points="406.16 484.88 559.8 484.88 559.8 156.99 559.8 119.38 406.16 119.38 406.16 484.88"/>
  <polygon class="cls-6" points="647.37 119.38 559.8 200.44 559.8 259.35 716.37 119.38 647.37 119.38"/>
  <polygon class="cls-6" points="318.58 119.38 406.16 200.44 406.16 259.35 249.59 119.38 318.58 119.38"/>
  <path class="cls-7" d="M426.98,119.38s15.1,40.89,8.75,73.67c-.44,2.27-1.11,4.48-1.94,6.63-3.82,9.92-16.4,45.06-11.16,64.63.17.64.31,1.27.37,1.93.74,7.11,5.23,50.79,4.71,62.19-.1,2.13.11,4.26.69,6.32,3.91,13.8,16.68,62.98,12.02,102.9-.55,4.68-2.24,9.14-4.79,13.1-4.98,7.74-13.21,22.5-12.1,34.14"/>
  <path class="cls-7" d="M541.08,119.38s15,19.48,8.65,48.32c0,0-8.65,32.3-.29,42.11,0,0,8.6,12.4,10.36,24.8"/>
  <path class="cls-7" d="M510.79,119.38s-7.21,47.16,0,99.94c7.21,52.78,1.15,85.37,1.15,85.37,0,0,1.15,47.87,10.38,75.85,6.41,19.43.99,50.14-2.91,67.08-1.95,8.46-1.69,17.28.71,25.62l3.35,11.65"/>
  <path class="cls-7" d="M452.82,119.38s8.94,40.32,6.06,69.99c0,0,21.05,47.55.57,74.94,0,0-22.49,19.03-21.05,67.2,0,0,3.75,40.95,21.63,68.35,0,0,21.63,34.9,6.34,70.08,0,0-4.9,10.57,3.46,14.94"/>
  <path class="cls-7" d="M443.02,207.57s-16.65,18.1-9.23,55.09"/>
  <path class="cls-7" d="M443.02,264.1c.87-.87,23.07-23.65,10.67-53.93"/>
  <line class="cls-7" x1="445.04" y1="226.89" x2="443.02" y2="241.6"/>
  <path class="cls-7" d="M559.8,283.29s-24.49,2.88-22.18,67.49c0,0,22.97,24.21,12.82,66.04-.42,1.73-23.49,25.09-17.72,44.99,0,0,16.7,5.48,17.72,23.07"/>
  <path class="cls-8" d="M471.84,286.32s-23.56,24.94-7.87,78.84"/>
  <path class="cls-8" d="M492.87,289.54c-.34,1.21,17.56,25.74-9.89,77.64"/>
  <line class="cls-8" x1="478.26" y1="314.6" x2="476.03" y2="339.12"/>
  <line class="cls-8" x1="665.46" y1="119.38" x2="559.8" y2="215.56"/>
  <line class="cls-8" x1="682.92" y1="119.38" x2="559.8" y2="228.93"/>
  <line class="cls-8" x1="699.64" y1="119.38" x2="559.8" y2="242.1"/>
  <line class="cls-8" x1="300.49" y1="119.38" x2="406.16" y2="215.56"/>
  <line class="cls-8" x1="283.03" y1="119.38" x2="406.16" y2="228.93"/>
  <line class="cls-8" x1="266.32" y1="119.38" x2="406.16" y2="242.1"/>
  <path class="cls-5" d="M510.46,219.37s22.49,14.75,24.6,33.34-13.97,18.1-10.16,43.33-8.97-5.68-8.97-5.68c0,0-.35-20.64,4.31-29.8,4.66-9.15-6.63-13.52-6.63-13.52,0,0-2.19-11.39-3.15-27.66Z"/>
  <path class="cls-7" d="M846.58,33.42s-144.34-26.85-200.48-7.32c-50.43,17.54-202.43,6.94-232.81,4.61-3.38-.26-6.69-1.03-9.84-2.3-16.72-6.71-76.03-28.54-114.06-16.95-44.63,13.6-116.46,7.32-116.46,7.32C172.93,18.77,17.1-14,0,30.98"/>
  <path class="cls-7" d="M846.58,66.19s-109.12-36.61-161.08-20.57c-26.76,8.26-47.87,8.47-62.06,6.74-12.07-1.48-24.36.35-35.39,5.45-9.03,4.18-23.15,8.53-44.81,10.82-34.37,3.63-99.22-10.83-135.66-20.01-15.98-4.03-32.84-1.98-47.45,5.65-22.73,11.87-62.65,27.49-112.88,25.52-48.51-1.91-71.29-15.59-81.71-26.05-9.73-9.77-22.35-16.11-35.91-18.6C95,28.76,35.81,23.62,0,52.59"/>
  <path class="cls-7" d="M846.58,97.23s-53.33,19.53-98.31,4.53c0,0-61.46-36.61-115.29-12.55,0,0-98.81,45.33-249.44-2.79,0,0-27.88-8.76-43.32,6.56-1.68,1.67-3.51,3.18-5.56,4.37-10.19,5.91-41.28,19.48-104.24,13.13,0,0-89.56,0-117.46-25.45C112.96,85.02,44.65,46.67,0,104.55"/>
  <path class="cls-7" d="M802.77,66.89s-43.97-18.45-77.48-8.53"/>
  <path class="cls-7" d="M808.82,87.81s-32.5,17.78-72.68-6.28"/>
  <line class="cls-7" x1="780.34" y1="76.31" x2="751.16" y2="72.56"/>
  <path class="cls-7" d="M346.48,34.46c-14.89-1.05-96.83-17.13-155.06,1.55"/>
  <path class="cls-7" d="M329.46,55.43s-84.59,26.9-122.82,0"/>
  <line class="cls-7" x1="282.07" y1="44.57" x2="242.44" y2="44.57"/>
  <path class="cls-7" d="M84.02,100.02s-27.89-11.86-44.63,0"/>
  <path class="cls-1" d="M817.36,138.48l-12.84,5.67-8.38,13.93-5.66,11.97s1.19-29.95,16.6-31.56l10.28-.02Z"/>
  <path class="cls-5" d="M266.18,44.08s-2.96-4.5,0-8.37c0,0,3.6,5.5,0,8.37Z"/>
  <polygon class="cls-1" points="560.86 131.57 560.86 143.39 563.34 136.21 584.18 136.83 567.65 134.03 560.86 131.57"/>
  <path class="cls-1" d="M725.81,202.03l-3.41,6.41-6.15,8.91-10.44,9.34-4.96,2.94s9.58-4.26,10.08-4.63,14.87-13.56,14.87-13.56l14.81,11.93,5.06,2.41-8.32-7.12-6.42-7.6-3.83-7.1-1.29-1.94Z"/>
  <path class="cls-7" d="M721.2,186.19s5.74,56.2,82.89,55.6"/>
  <path class="cls-1" d="M640.03,321.13l16.73,12.92,4.5-2.18s-5.91,8.3-1.8,31.45l-1.43,5.39s-.94-33.99-17.99-47.57Z"/>
  <path class="cls-7" d="M646.4,233.94s59.26,16.87,79.41-32.63"/>
  <path class="cls-7" d="M818.75,161.73s35.38,7.84,21.23,40.5"/>
  <path class="cls-7" d="M588.78,310.5c3.54,4.01,67.22-19.48,69.24,61.87"/>
  <polygon class="cls-1" points="733.32 311.26 742.49 314.52 754.02 315.8 767.98 312.86 782.55 304 772.4 313.31 757.93 324.71 744.09 317.39 733.32 311.26"/>
  <path class="cls-7" d="M719.18,301.81s44.48,44.2,84.91-24.54"/>
  <path class="cls-7" d="M800.56,341.3c10.61,8.72,37.4-14.31,38.41,41.03"/>
  <path class="cls-7" d="M579.68,372.36s1.52,38.95,43.72,32.08"/>
  <path class="cls-1" d="M727.53,138.06s6,20.29,10.91,21.12c0,0,9.98,5.7,18.21,3.17,0,0-18.21-1.5-29.12-24.29Z"/>
  <path class="cls-7" d="M723.27,125.96s8.59,43.41,49.03,35.39"/>
  <polygon class="cls-1" points="727.08 434.48 738.81 439.4 750.88 442.8 736.82 442.8 727.08 434.48"/>
  <path class="cls-1" d="M792.22,443.07l11.87-.28-1.84,4.86s6.98-6.19,7.18-7.34l4.77-3.6-9.12,3.37-7.79,2.1-5.07.88Z"/>
  <path class="cls-3" d="M738.27,118.88s12.76,19.59,7.51,33.1-3.75,33.03,9.01,45.04,24.02,10.98,22.52-7.65c-.56-6.98,1.2-9.66,3.62-10.28,5.38-1.37,9.53-5.65,9.93-11.19.94-13.23,4.82-30.36,18.74-29.43,22.52,1.5,37.58-19.59,37.58-19.59h-108.89Z"/>
  <path class="cls-7" d="M697,412.46c1.96,1.72,55.54,63.68,141.97,12.08"/>
  <path class="cls-7" d="M560.85,130.95s26.75,15.22,42.65-4.84"/>
  <polygon class="cls-1" points="279.01 146.1 280.54 151.79 354.77 218.22 374.25 231.25 279.01 146.1"/>
  <path class="cls-7" d="M395.56,143.23s1.42-16.7-28.45-14.41"/>
  <path class="cls-1" d="M295.82,285.72l4.13,15.02,2.1,17.21s8.85-8.51,20.84-1.99l6.42-.09s-20.94-2.67-33.48-30.14Z"/>
  <path class="cls-7" d="M341,336.5s50.29,6.85,45.74-49.28"/>
  <path class="cls-1" d="M139.89,214.85l-11.86-6.35-4.13,5.9v-15.08s3.68,6.42,15.99,15.53Z"/>
  <path class="cls-7" d="M335.24,316.86c-.91.24-43.32-4.28-43.32-57.11"/>
  <path class="cls-7" d="M314.94,242.5s53.32-27.52,76.04,26.65"/>
  <path class="cls-7" d="M123.5,198.07s18.99,34.63,53.53,18.41"/>
  <path class="cls-7" d="M177.69,119.78s13.03,16.51,2.73,39.2"/>
  <path class="cls-7" d="M236.47,189.77s23.93,39.49,60.59,22.29"/>
  <path class="cls-1" d="M205.61,425.7l12.81-12.83.61-5.17,9.12,10.18,7.54,2.57-8.21-8.38-6.53-10.53-1.93-3.37s-7.87,23.23-13.41,27.53Z"/>
  <path class="cls-7" d="M130.85,449.31s69.68,17.97,88.16-52.67"/>
  <path class="cls-7" d="M291.12,436.17s-78.77,7.32-76.95-71.01"/>
  <path class="cls-1" d="M367.56,460.51l5.75.72,6.88-2.71-1.59,4.8s8.14-9.5,7.58-13.23l-.51-2.66s-7.11,11.34-18.11,13.07Z"/>
  <path class="cls-7" d="M357.96,459.12s23.33,10.25,33.02-24.89"/>
  <path class="cls-7" d="M184.38,292.58s36.03,17.2,52.08-23.43"/>
  <path class="cls-7" d="M148.91,252.34s-11.51,21.58,6.36,31.46"/>
  <path class="cls-3" d="M141.82,450.91c-.42-.16,10.85.43,10.85.43l7.95-.43s2.63,5.53-1.46,9.78c0,0-1.29,3.51,1.7,6.88,1.67,1.89.07,1.95-1.65,1.63-1.61-.29-2.94-1.25-3.59-2.56-1.36-2.74-4.33-7.18-7.97-3.22,0,0-.94,1.52-.99,4.25,0,0,1.46,5.36-6.43.25,0,0-5.83-4.76,7.67-9.46,0,0,8.28-2.11-6.07-7.56Z"/>
  <path class="cls-3" d="M142.56,453.11s-1.58,2.23-1.58,3.39c0,0,2.46,2.02,3.92-.35,0,0-.29-1.62-2.34-3.04Z"/>
  <path class="cls-7" d="M114.12,119.05s-12.96,81.75-7.51,147.27c.38,4.53.95,8.95,1.67,13.26,3.28,19.84,14.07,90.08,9.58,129.19-.15,1.27-.26,2.54-.32,3.85-.64,14.21-4.49,101.54-4.04,124.31.08,4.26-.1,8.52-.6,12.63-3.36,27.58-14.31,125.91-10.31,205.71.47,9.35,1.93,18.28,4.11,26.2,4.27,15.46,11.33,44.97,10.38,68.25"/>
  <path class="cls-7" d="M16.2,119.05s-12.87,38.94-7.42,96.59c0,0,7.42,64.57.25,84.17,0,0-7.38,24.79-8.89,49.58"/>
  <path class="cls-7" d="M42.19,119.05s6.19,94.28,0,199.79c-6.19,105.51-.99,170.65-.99,170.65,0,0-.99,95.71-8.91,151.63-5.5,38.85-.85,100.24,2.5,134.1,1.67,16.91,1.45,34.53-.61,51.21l-2.88,23.29"/>
  <path class="cls-7" d="M91.94,119.05s-7.67,80.61-5.2,139.91c0,0-18.06,95.05-.49,149.82,0,0,19.3,38.05,18.06,134.33,0,0-3.22,81.87-18.56,136.64,0,0-18.56,69.76-5.44,140.1,0,0,4.21,21.12-2.97,29.88"/>
  <path class="cls-7" d="M100.35,296.35s14.29,36.18,7.92,110.12"/>
  <path class="cls-7" d="M100.35,409.35c-.74-1.73-19.8-47.28-9.16-107.81"/>
  <line class="cls-7" x1="98.62" y1="334.98" x2="100.35" y2="364.38"/>
  <path class="cls-7" d="M.14,444.52s21.01,5.77,19.03,134.91c0,0-19.71,48.39-11,132.03.36,3.46,20.16,50.16,15.21,89.94,0,0-14.33,10.95-15.21,46.12"/>
  <path class="cls-8" d="M75.62,453.78s20.22,49.86,6.76,157.61"/>
  <path class="cls-8" d="M57.57,460.21c.29,2.41-15.07,51.47,8.49,155.2"/>
  <line class="cls-8" x1="70.11" y1="510.31" x2="72.02" y2="559.32"/>
  <polygon class="cls-9" points="436.52 485.86 488.16 509.08 471.78 540.18 545.64 485.52 436.52 485.86"/>
  <path class="cls-9" d="M443.9,849.55s54.93-13.94,37.04-43.8l46.68,26.12,27.84,17.89-111.56-.21Z"/>
  <path class="cls-9" d="M140.73,526.36s86.24,8.09,94.94-8.09c0,0-12.29,36.08-8.3,72.15l-23.28-45.41-63.35-18.66Z"/>
  <polygon class="cls-9" points="585.93 691.81 607.53 704.25 635.86 683.1 612 714.2 585.93 691.81"/>
  <polygon class="cls-9" points="794.83 500.85 832.22 500.85 828.31 540.04 824.79 508.32 794.83 500.85"/>
  <path class="cls-9" d="M724.98,631.6s79.32,32.97,72.69,98.28c0,0-16.01-66.55-40.87-44.16l-3.59-24.88-28.23-29.23Z"/>
  <path class="cls-9" d="M258.46,648.89l-53.78,31.72-55.74-26.12s42.9,28.61,42.06,49.14l67.47-54.74Z"/>
  <polygon class="cls-9" points="136 819.32 148.93 806.88 154.35 813.1 136 819.32"/>
  <polygon class="cls-9" points="498.25 599.13 483.47 613.44 490.14 596.64 498.25 599.13"/>
  <path class="cls-9" d="M345.75,554.35s6.23,11.82,18.02,8.71l-14.89,8.09-3.13-16.79Z"/>
  <polygon class="cls-9" points="599.36 591.72 682.71 581.14 646.93 591.72 599.36 591.72"/>
  <polygon class="cls-9" points="653.8 537.55 657.52 525.73 647.76 531.64 653.8 537.55"/>
  <polyline class="cls-7" points="297.27 708.34 338.45 676.26 390.07 683.1 407.77 674.09 430.07 680.78 472.68 698.03 513.68 672.12"/>
  <polyline class="cls-7" points="718.66 524.11 745.09 555.99 766.36 562.74 764.75 596.64 782.54 590.42 782.54 611.5"/>
  <path class="cls-5" d="M397.83,679.15s-10.31-3.09-13.06-14.51c0,0,11.32-.45,15.78,7.25,0,0-4.8-13.95,1.72-20.64,0,0,6.87,6.24,7.55,13.95v2.93s5.92-14.12,13.25-9.79c0,0,2.38,11.14-3.79,19.2l-11.52-3.46-9.94,5.06Z"/>
</svg>