<?xml version="1.0" encoding="UTF-8"?>
<svg id="Layer_1" xmlns="http://www.w3.org/2000/svg" viewBox="0 0 846.58 850.39">
  <defs>
    <style>
      .cls-1 {
        fill: #b28d62;
      }

      .cls-2 {
        fill: #c49a6c;
      }

      .cls-2, .cls-3, .cls-4 {
        stroke: #231f20;
        stroke-miterlimit: 10;
      }

      .cls-3 {
        fill: #006838;
      }

      .cls-4 {
        fill: none;
      }
    </style>
  </defs>
  <rect class="cls-2" x="-1.23" y="0" width="849.05" height="852.64"/>
  <polygon class="cls-1" points="436.89 20.88 428.81 85.13 371.9 100.99 496.19 110.1 436.89 20.88"/>
  <path class="cls-1" d="M721.26,812.64s19.5-55.64-32.57-79.18l67.04-1.28,43.05,2.03-77.53,78.43Z"/>
  <path class="cls-1" d="M34.49,123.99s86.9,14.25,95.66-14.25c0,0-12.38,63.59-8.37,127.19l-23.46-80.04-63.84-32.89Z"/>
  <polygon class="cls-1" points="718.58 543.18 740.34 565.11 768.9 527.83 744.85 582.65 718.58 543.18"/>
  <polygon class="cls-1" points="456.35 542.31 476.71 610.29 467 636.6 486.64 605.9 456.35 542.31"/>
  <polygon class="cls-1" points="769.41 34.87 807.08 34.87 803.15 103.95 799.6 48.03 769.41 34.87"/>
  <path class="cls-1" d="M341.96,695.84s-34.36,90.62-150.6,118.05c0,0,111.75-49.1,65.26-60.67l42.48-16.13,42.86-41.25Z"/>
  <path class="cls-1" d="M205.4,511.9l-54.19,55.92-56.17-46.05s43.23,50.44,42.38,86.62l67.99-96.49Z"/>
  <polygon class="cls-1" points="24.67 794.24 37.7 772.31 43.16 783.27 24.67 794.24"/>
  <polygon class="cls-1" points="441.49 278.88 426.6 304.1 433.32 274.5 441.49 278.88"/>
  <path class="cls-1" d="M189.91,340.94s6.28,20.83,18.16,15.35l-15.01,14.25-3.15-29.6Z"/>
  <polygon class="cls-1" points="556.23 193.36 640.22 174.72 604.16 193.36 556.23 193.36"/>
  <polygon class="cls-1" points="598.23 170.34 601.98 149.51 592.14 159.92 598.23 170.34"/>
  <polyline class="cls-4" points="338.87 470.24 380.36 413.7 432.37 425.76 450.21 409.87 472.68 421.67 515.62 452.07 556.93 406.4"/>
  <polyline class="cls-4" points="663.59 146.64 690.23 202.85 711.65 214.74 710.04 274.5 727.96 263.53 727.96 300.69"/>
  <polyline class="cls-4" points="204.4 38.07 231.9 56.89 227.61 100.75"/>
  <path class="cls-3" d="M440.19,418.79s-10.39-5.45-13.16-25.57c0,0,11.41-.8,15.91,12.79,0,0-4.84-24.58,1.73-36.38,0,0,6.92,11,7.61,24.58v5.17s5.97-24.89,13.35-17.26c0,0,2.4,19.63-3.82,33.85l-11.61-6.09-10.01,8.92Z"/>
  <path class="cls-3" d="M685.04,191.9s5.77-4.23,4.54-12.65c0,0,3.48,5.79.17,14.11,0,0,6.82-5,7.17-12.01,0,0,2.04,8.74-1.14,15.78,0,0,4.81-3.86,6.73,2.45,0,0-.71,3.68-8.74,4.54-.35.04-.71.2-1.09.1-.8-.23-2.46-1.37-2.46-1.37l-5.19-10.95Z"/>
  <path class="cls-3" d="M225.96,52.83s-2.6-7.93,0-14.76c0,0,3.17,9.7,0,14.76Z"/>
</svg>