<?xml version="1.0" encoding="UTF-8"?>
<svg id="Layer_1" xmlns="http://www.w3.org/2000/svg" viewBox="0 0 846.58 850.39">
  <defs>
    <style>
      .cls-1, .cls-2 {
        fill: #c49a6c;
      }

      .cls-3 {
        fill: #5e5449;
      }

      .cls-4 {
        fill: #726658;
      }

      .cls-4, .cls-2, .cls-5, .cls-6, .cls-7 {
        stroke: #231f20;
        stroke-miterlimit: 10;
      }

      .cls-8 {
        fill: #b28d62;
      }

      .cls-5 {
        fill: #006838;
      }

      .cls-6 {
        fill: none;
      }

      .cls-7 {
        fill: #8b5e3c;
      }
    </style>
  </defs>
  <rect class="cls-2" x="57.44" y="61.94" width="731.7" height="846.58" transform="translate(-61.94 908.52) rotate(-90)"/>
  <rect class="cls-1" x="119.38" width="617.81" height="850.18"/>
  <rect class="cls-7" x="727.2" width="119.38" height="119.38"/>
  <rect class="cls-7" y="0" width="119.38" height="119.38"/>
  <rect class="cls-4" x="727.2" y="119.38" width="119.38" height="365.51"/>
  <rect class="cls-4" y="119.38" width="119.38" height="365.51"/>
  <polygon class="cls-3" points="733.61 119.9 766.41 124.1 763.05 129.5 776.47 122.79 790.45 119.9 733.61 119.9"/>
  <path class="cls-6" d="M746.08,0s-7.4,29.8-7.3,53.49c.02,5.27,1.54,10.41,4.26,14.92,4.6,7.64,11.62,22.87,9.95,42.8l-2.44,8.17"/>
  <path class="cls-6" d="M818.43,0s17.48,22.33,14.9,43.74c-2.26,18.78,5.18,44.41,7.04,50.43.22.71.5,1.39.83,2.06,1.4,2.77,5.27,12.72-4.62,23.15"/>
  <path class="cls-6" d="M783.07,12.58c-1.22.41-25.88,19.28-27.5,55.64"/>
  <path class="cls-6" d="M789.57,107.55c3.52-.95,43.22-30.75,32.65-71.54"/>
  <path class="cls-3" d="M772.89,209.73l24.3,3.44,20.29,8.73,13.31-2.08s-18.17.38-31.07-11.75c0,0-11.96,3.18-26.82,1.66Z"/>
  <line class="cls-6" x1="798.51" y1="38.86" x2="785.78" y2="57.56"/>
  <path class="cls-6" d="M737.19,162.39s-3.82,57.76,62.52,45.68"/>
  <path class="cls-3" d="M746.79,299.56l2.02,17.78,8.56,7s-7.96-13.38-10.58-24.78Z"/>
  <path class="cls-3" d="M808.52,298.4l8.69-1.54,6.75-2.85,5.77-4.62,4.18-2.08s-9.16,10.59-9.28,14.82c0,0-6.99-3.53-16.12-3.73Z"/>
  <path class="cls-6" d="M843.13,218.81s-47.78,10.35-53.56-35.03"/>
  <path class="cls-3" d="M775.81,423.27s9.51,4.68,10.48,8.17c0,0,18.68-7.38,24.42-8.17l2.07-4.11s-15.5,11.25-36.97,4.11Z"/>
  <path class="cls-6" d="M758.57,326.24c-.8-1.27-36.56-53.68,9.85-84.14"/>
  <path class="cls-6" d="M792.14,297.9c6.5-1.06,48.7,11.15,46.58-42.2"/>
  <path class="cls-6" d="M751.67,409.36s44.06,40.87,77.23-6.37"/>
  <path class="cls-6" d="M820.14,477.13s18.73,1.76,18.65-16.02"/>
  <path class="cls-6" d="M801.04,365.66s22.29-10.42,27.87,11.07"/>
  <path class="cls-3" d="M37.84,217.3h10.91l5.55-5.65,19.62-1.91s-14.27-.04-20.82-1.66c0,0-10.59,9.29-15.26,9.23Z"/>
  <path class="cls-6" d="M821.21,126.69c.97-.16,17.4-1.77,19.17,20.3"/>
  <path class="cls-6" d="M106.72,0s7.4,29.8,7.3,53.49c-.02,5.27-1.54,10.41-4.26,14.92-4.6,7.64-11.62,22.87-9.95,42.8l2.44,8.17"/>
  <path class="cls-6" d="M34.38,0s-17.48,22.33-14.9,43.74c2.26,18.78-5.18,44.41-7.04,50.43-.22.71-.5,1.39-.83,2.06-1.4,2.77-5.27,12.72,4.62,23.15"/>
  <path class="cls-6" d="M69.74,12.58c1.22.41,25.88,19.28,27.5,55.64"/>
  <path class="cls-6" d="M63.23,107.55c-3.52-.95-43.22-30.75-32.65-71.54"/>
  <line class="cls-6" x1="54.29" y1="38.86" x2="67.03" y2="57.56"/>
  <path class="cls-6" d="M115.62,162.39s3.82,57.76-62.52,45.68"/>
  <path class="cls-3" d="M18.58,282.85l9.79,17.67-2,12.98,11.46-11.38,15.26-3.73s-25.48,2.97-34.52-15.55Z"/>
  <path class="cls-6" d="M9.67,218.81s47.78,10.35,53.56-35.03"/>
  <path class="cls-6" d="M94.23,326.24c.8-1.27,36.56-53.68-9.85-84.14"/>
  <path class="cls-6" d="M60.66,297.9c-6.5-1.06-48.7,11.15-46.58-42.2"/>
  <path class="cls-6" d="M101.13,409.36s-44.06,40.87-77.23-6.37"/>
  <path class="cls-6" d="M32.66,477.13s-18.73,1.76-18.65-16.02"/>
  <path class="cls-6" d="M51.77,365.66s-22.29-10.42-27.87,11.07"/>
  <path class="cls-6" d="M31.59,126.69c-.97-.16-17.4-1.77-19.17,20.3"/>
  <path class="cls-5" d="M.52,158.29s21.23,14.25,21.87,29.72c.65,15.47-15.33,13.54-13.52,34.61,1.81,21.08-7.23-5.48-7.23-5.48,0,0,.02-17.02,5.37-24.1s-7.03-11.85-7.03-11.85c0,0,.21-9.45.52-22.9Z"/>
  <path class="cls-5" d="M805.46,119.38s3.16-6.65-1.29-8.94c0,0,5.29-.7,5.86,5.46,0,0,3.73-7.86,1.19-10.95,0,0,5.26,1.72,5.43,7.25,0,0,2.5-5.68,6.68-4.83,0,0,.89,2.08-5.54,9.33-.28.31-.52.7-.88.97-.77.6-2.63,1.58-2.63,1.58l-8.82.12Z"/>
  <polygon class="cls-8" points="430.23 17.91 423.92 74.02 379.54 87.87 476.47 95.83 430.23 17.91"/>
  <path class="cls-8" d="M753.36,824.39s15.21-48.59-25.4-69.15l52.28-1.12,33.57,1.77-60.46,68.5Z"/>
  <path class="cls-8" d="M124.6,153.7s67.77,12.45,74.6-12.45c0,0-9.66,55.54-6.53,111.08l-18.29-69.9-49.78-28.73Z"/>
  <polygon class="cls-8" points="748.81 534.3 765.78 553.45 788.05 520.89 769.29 568.77 748.81 534.3"/>
  <polygon class="cls-8" points="543.32 586.55 559.2 645.92 551.63 668.91 566.94 642.09 543.32 586.55"/>
  <polygon class="cls-8" points="689.53 9.2 718.91 9.2 715.84 69.53 713.07 20.69 689.53 9.2"/>
  <path class="cls-8" d="M265.68,678.83s-26.79,79.15-117.44,103.1c0,0,87.15-42.88,50.89-52.99l33.13-14.09,33.42-36.03Z"/>
  <path class="cls-8" d="M135.67,511.41l-42.26,48.84-43.8-40.22s33.71,44.05,33.05,75.65l53.02-84.27Z"/>
  <polygon class="cls-8" points="433.81 243.24 422.2 265.26 427.44 239.41 433.81 243.24"/>
  <path class="cls-8" d="M237.63,297.44s4.89,18.19,14.16,13.41l-11.7,12.45-2.46-25.85Z"/>
  <polygon class="cls-8" points="600.73 103.6 666.22 87.32 638.1 103.6 600.73 103.6"/>
  <polygon class="cls-8" points="665.28 198.93 667.45 180.74 661.77 189.84 665.28 198.93"/>
  <polyline class="cls-6" points="367.4 520.37 416.69 470.99 478.47 481.52 499.65 467.65 526.34 477.95 577.34 504.5 626.41 464.62"/>
  <polyline class="cls-6" points="564.14 195.01 584.91 244.1 601.62 254.49 600.36 306.68 614.34 297.1 614.34 329.55"/>
  <polyline class="cls-6" points="248.93 32.92 270.37 49.36 267.03 87.66"/>
  <path class="cls-5" d="M485.69,476.92s-14.41-4.76-18.25-22.33c0,0,15.83-.7,22.07,11.17,0,0-6.72-21.47,2.4-31.77,0,0,9.61,9.61,10.56,21.47v4.52s8.28-21.74,18.53-15.07c0,0,3.33,17.15-5.3,29.56l-16.11-5.32-13.89,7.79Z"/>
  <path class="cls-5" d="M580.87,234.54s4.5-3.7,3.54-11.05c0,0,2.72,5.06.13,12.33,0,0,5.32-4.37,5.59-10.49,0,0,1.59,7.63-.89,13.78,0,0,3.75-3.37,5.25,2.14,0,0-.56,3.21-6.81,3.96-.27.03-.56.18-.85.08-.63-.2-1.92-1.19-1.92-1.19l-4.05-9.56Z"/>
  <path class="cls-5" d="M265.74,45.81s-2.03-6.93,0-12.89c0,0,2.47,8.47,0,12.89Z"/>
</svg>